Geologisk-Black.ufo
<glyph name="numbersign" format="2">
  <advance width="1314"/>
  <unicode hex="0023"/>
  <outline>
    <contour>
      <point x="136" y="32" type="line"/>
      <point x="408" y="32" type="line"/>
      <point x="480" y="336" type="line"/>
      <point x="664" y="334" type="line"/>
      <point x="592" y="32" type="line"/>
      <point x="864" y="32" type="line"/>
      <point x="938" y="334" type="line"/>
      <point x="1100" y="334" type="line"/>
      <point x="1160" y="592" type="line"/>
      <point x="1000" y="592" type="line"/>
      <point x="1048" y="802" type="line"/>
      <point x="1208" y="802" type="line"/>
      <point x="1266" y="1058" type="line"/>
      <point x="1108" y="1058" type="line"/>
      <point x="1182" y="1368" type="line"/>
      <point x="910" y="1368" type="line"/>
      <point x="836" y="1058" type="line"/>
      <point x="650" y="1058" type="line"/>
      <point x="724" y="1368" type="line"/>
      <point x="452" y="1368" type="line"/>
      <point x="378" y="1058" type="line"/>
      <point x="216" y="1058" type="line"/>
      <point x="156" y="802" type="line"/>
      <point x="318" y="802" type="line"/>
      <point x="268" y="592" type="line"/>
      <point x="108" y="592" type="line"/>
      <point x="48" y="336" type="line"/>
      <point x="208" y="336" type="line"/>
    </contour>
    <contour>
      <point x="540" y="592" type="line"/>
      <point x="588" y="802" type="line"/>
      <point x="776" y="802" type="line"/>
      <point x="728" y="592" type="line"/>
    </contour>
  </outline>
</glyph>
<glyph name="quotesingle" format="2">
  <advance width="516"/>
  <unicode hex="0027"/>
  <outline>
    <contour>
      <point x="130" y="902" type="line"/>
      <point x="410" y="902" type="line"/>
      <point x="450" y="1440" type="line"/>
      <point x="90" y="1440" type="line"/>
    </contour>
  </outline>
</glyph>
<glyph name="parenright" format="2">
  <advance width="732"/>
  <unicode hex="0029"/>
  <outline>
    <contour>
      <point x="384" y="-430" type="line"/>
      <point x="550" y="-136"/>
      <point x="632" y="176"/>
      <point x="632" y="492" type="curve" smooth="yes"/>
      <point x="632" y="806"/>
      <point x="550" y="1118"/>
      <point x="384" y="1410" type="curve"/>
      <point x="70" y="1298" type="line"/>
      <point x="212" y="1068"/>
      <point x="282" y="782"/>
      <point x="282" y="496" type="curve" smooth="yes"/>
      <point x="282" y="206"/>
      <point x="210" y="-82"/>
      <point x="70" y="-318" type="curve"/>
    </contour>
  </outline>
</glyph>
<glyph name="asterisk" format="2">
  <advance width="1192"/>
  <unicode hex="002A"/>
  <outline>
    <contour>
      <point x="454" y="398" type="line"/>
      <point x="594" y="642" type="line"/>
      <point x="734" y="398" type="line"/>
      <point x="1040" y="608" type="line"/>
      <point x="854" y="816" type="line"/>
      <point x="1126" y="882" type="line"/>
      <point x="1010" y="1234" type="line"/>
      <point x="752" y="1122" type="line"/>
      <point x="784" y="1400" type="line"/>
      <point x="408" y="1400" type="line"/>
      <point x="440" y="1122" type="line"/>
      <point x="182" y="1234" type="line"/>
      <point x="66" y="882" type="line"/>
      <point x="338" y="816" type="line"/>
      <point x="152" y="608" type="line"/>
    </contour>
  </outline>
</glyph>
<glyph name="comma" format="2">
  <advance width="600"/>
  <unicode hex="002C"/>
  <outline>
    <contour>
      <point x="145" y="-396" type="line"/>
      <point x="420" y="-239"/>
      <point x="551" y="-56"/>
      <point x="551" y="140" type="curve" smooth="yes"/>
      <point x="551" y="306"/>
      <point x="445" y="416"/>
      <point x="295" y="416" type="curve" smooth="yes"/>
      <point x="161" y="416"/>
      <point x="67" y="327"/>
      <point x="67" y="191" type="curve" smooth="yes"/>
      <point x="67" y="60"/>
      <point x="183" y="-22"/>
      <point x="320" y="-14" type="curve"/>
      <point x="269" y="-98"/>
      <point x="163" y="-188"/>
      <point x="35" y="-238" type="curve"/>
    </contour>
  </outline>
</glyph>
<glyph name="period" format="2">
  <advance width="600"/>
  <unicode hex="002E"/>
  <outline>
    <contour>
      <point x="300" y="-30" type="curve" smooth="yes"/>
      <point x="426" y="-30"/>
      <point x="534" y="54"/>
      <point x="534" y="192" type="curve" smooth="yes"/>
      <point x="534" y="332"/>
      <point x="426" y="416"/>
      <point x="300" y="416" type="curve" smooth="yes"/>
      <point x="174" y="416"/>
      <point x="66" y="332"/>
      <point x="66" y="192" type="curve" smooth="yes"/>
      <point x="66" y="54"/>
      <point x="174" y="-30"/>
    </contour>
  </outline>
</glyph>
<glyph name="slash" format="2">
  <advance width="948"/>
  <unicode hex="002F"/>
  <outline>
    <contour>
      <point x="292" y="-230" type="line"/>
      <point x="978" y="1484" type="line"/>
      <point x="656" y="1610" type="line"/>
      <point x="-30" y="-104" type="line"/>
    </contour>
  </outline>
</glyph>
<glyph name="one" format="2">
  <advance width="938"/>
  <unicode hex="0031"/>
  <outline>
    <contour>
      <point x="414" y="0" type="line"/>
      <point x="782" y="0" type="line"/>
      <point x="782" y="1430" type="line"/>
      <point x="756" y="1430" type="line"/>
      <point x="22" y="1176" type="line"/>
      <point x="128" y="860" type="line"/>
      <point x="414" y="958" type="line"/>
    </contour>
  </outline>
</glyph>
<glyph name="four" format="2">
  <advance width="1206"/>
  <unicode hex="0034"/>
  <outline>
    <contour>
      <point x="664" y="0" type="line"/>
      <point x="992" y="0" type="line"/>
      <point x="992" y="246" type="line"/>
      <point x="1166" y="246" type="line"/>
      <point x="1166" y="564" type="line"/>
      <point x="992" y="564" type="line"/>
      <point x="992" y="812" type="line"/>
      <point x="664" y="812" type="line"/>
      <point x="664" y="564" type="line"/>
      <point x="430" y="564" type="line"/>
      <point x="816" y="1400" type="line"/>
      <point x="424" y="1400" type="line"/>
      <point x="20" y="528" type="line"/>
      <point x="20" y="246" type="line"/>
      <point x="664" y="246" type="line"/>
    </contour>
  </outline>
</glyph>
<glyph name="six" format="2">
  <advance width="1304"/>
  <unicode hex="0036"/>
  <guideline x="171" y="497" angle="0"/>
  <outline>
    <contour>
      <point x="668" y="-30" type="curve" smooth="yes"/>
      <point x="998" y="-30"/>
      <point x="1222" y="186"/>
      <point x="1222" y="462" type="curve" smooth="yes"/>
      <point x="1222" y="724"/>
      <point x="1024" y="914"/>
      <point x="748" y="914" type="curve" smooth="yes"/>
      <point x="684" y="914"/>
      <point x="622" y="902"/>
      <point x="566" y="880" type="curve"/>
      <point x="672" y="1012"/>
      <point x="858" y="1098"/>
      <point x="1144" y="1138" type="curve"/>
      <point x="1010" y="1430" type="line"/>
      <point x="502" y="1349"/>
      <point x="96" y="1015"/>
      <point x="96" y="542" type="curve" smooth="yes"/>
      <point x="96" y="194"/>
      <point x="336" y="-30"/>
    </contour>
    <contour>
      <point x="668" y="286" type="curve" smooth="yes"/>
      <point x="562" y="286"/>
      <point x="484" y="356"/>
      <point x="484" y="452" type="curve" smooth="yes"/>
      <point x="484" y="548"/>
      <point x="562" y="618"/>
      <point x="668" y="618" type="curve" smooth="yes"/>
      <point x="774" y="618"/>
      <point x="852" y="548"/>
      <point x="852" y="452" type="curve" smooth="yes"/>
      <point x="852" y="356"/>
      <point x="774" y="286"/>
    </contour>
  </outline>
</glyph>
<glyph name="nine" format="2">
  <advance width="1280"/>
  <unicode hex="0039"/>
  <outline>
    <contour>
      <point x="270" y="-30" type="line"/>
      <point x="778" y="52"/>
      <point x="1184" y="391"/>
      <point x="1184" y="870" type="curve" smooth="yes"/>
      <point x="1184" y="1211"/>
      <point x="949" y="1430"/>
      <point x="624" y="1430" type="curve" smooth="yes"/>
      <point x="301" y="1430"/>
      <point x="82" y="1225"/>
      <point x="82" y="962" type="curve" smooth="yes"/>
      <point x="82" y="700"/>
      <point x="275" y="510"/>
      <point x="544" y="510" type="curve" smooth="yes"/>
      <point x="603" y="510"/>
      <point x="662" y="522"/>
      <point x="714" y="544" type="curve"/>
      <point x="608" y="400"/>
      <point x="422" y="306"/>
      <point x="136" y="262" type="curve"/>
    </contour>
    <contour>
      <point x="624" y="806" type="curve" smooth="yes"/>
      <point x="525" y="806"/>
      <point x="452" y="871"/>
      <point x="452" y="960" type="curve" smooth="yes"/>
      <point x="452" y="1049"/>
      <point x="525" y="1114"/>
      <point x="624" y="1114" type="curve" smooth="yes"/>
      <point x="723" y="1114"/>
      <point x="796" y="1049"/>
      <point x="796" y="960" type="curve" smooth="yes"/>
      <point x="796" y="871"/>
      <point x="723" y="806"/>
    </contour>
  </outline>
</glyph>
<glyph name="colon" format="2">
  <advance width="634"/>
  <unicode hex="003A"/>
  <outline>
    <contour>
      <point x="317" y="634" type="curve" smooth="yes"/>
      <point x="443" y="634"/>
      <point x="551" y="718"/>
      <point x="551" y="856" type="curve" smooth="yes"/>
      <point x="551" y="996"/>
      <point x="443" y="1080"/>
      <point x="317" y="1080" type="curve" smooth="yes"/>
      <point x="191" y="1080"/>
      <point x="83" y="996"/>
      <point x="83" y="856" type="curve" smooth="yes"/>
      <point x="83" y="718"/>
      <point x="191" y="634"/>
    </contour>
    <contour>
      <point x="317" y="-30" type="curve" smooth="yes"/>
      <point x="443" y="-30"/>
      <point x="551" y="54"/>
      <point x="551" y="192" type="curve" smooth="yes"/>
      <point x="551" y="332"/>
      <point x="443" y="416"/>
      <point x="317" y="416" type="curve" smooth="yes"/>
      <point x="191" y="416"/>
      <point x="83" y="332"/>
      <point x="83" y="192" type="curve" smooth="yes"/>
      <point x="83" y="54"/>
      <point x="191" y="-30"/>
    </contour>
  </outline>
</glyph>
<glyph name="semicolon" format="2">
  <advance width="634"/>
  <unicode hex="003B"/>
  <outline>
    <contour>
      <point x="318" y="634" type="curve" smooth="yes"/>
      <point x="444" y="634"/>
      <point x="552" y="718"/>
      <point x="552" y="856" type="curve" smooth="yes"/>
      <point x="552" y="996"/>
      <point x="444" y="1080"/>
      <point x="318" y="1080" type="curve" smooth="yes"/>
      <point x="192" y="1080"/>
      <point x="84" y="996"/>
      <point x="84" y="856" type="curve" smooth="yes"/>
      <point x="84" y="718"/>
      <point x="192" y="634"/>
    </contour>
    <contour>
      <point x="163" y="-396" type="line"/>
      <point x="438" y="-239"/>
      <point x="569" y="-56"/>
      <point x="569" y="140" type="curve" smooth="yes"/>
      <point x="569" y="306"/>
      <point x="463" y="416"/>
      <point x="313" y="416" type="curve" smooth="yes"/>
      <point x="179" y="416"/>
      <point x="85" y="327"/>
      <point x="85" y="191" type="curve" smooth="yes"/>
      <point x="85" y="60"/>
      <point x="201" y="-22"/>
      <point x="338" y="-14" type="curve"/>
      <point x="287" y="-98"/>
      <point x="181" y="-188"/>
      <point x="53" y="-238" type="curve"/>
    </contour>
  </outline>
</glyph>
<glyph name="less" format="2">
  <advance width="1296"/>
  <unicode hex="003C"/>
  <outline>
    <contour>
      <point x="1134" y="92" type="line"/>
      <point x="1236" y="348" type="line"/>
      <point x="508" y="628" type="line"/>
      <point x="1236" y="910" type="line"/>
      <point x="1136" y="1166" type="line"/>
      <point x="68" y="744" type="line"/>
      <point x="68" y="514" type="line"/>
    </contour>
  </outline>
</glyph>
<glyph name="equal" format="2">
  <advance width="1296"/>
  <unicode hex="003D"/>
  <outline>
    <contour>
      <point x="68" y="782" type="line"/>
      <point x="1228" y="782" type="line"/>
      <point x="1228" y="1050" type="line"/>
      <point x="68" y="1050" type="line"/>
    </contour>
    <contour>
      <point x="68" y="290" type="line"/>
      <point x="1228" y="290" type="line"/>
      <point x="1228" y="558" type="line"/>
      <point x="68" y="558" type="line"/>
    </contour>
  </outline>
</glyph>
<glyph name="greater" format="2">
  <advance width="1296"/>
  <unicode hex="003E"/>
  <guideline x="30" y="465" angle="68.4372"/>
  <outline>
    <contour>
      <point x="162" y="72" type="line"/>
      <point x="1228" y="494" type="line"/>
      <point x="1228" y="764" type="line"/>
      <point x="160" y="1186" type="line"/>
      <point x="60" y="930" type="line"/>
      <point x="808" y="628" type="line"/>
      <point x="60" y="328" type="line"/>
    </contour>
  </outline>
</glyph>
<glyph name="at" format="2">
  <advance width="1708"/>
  <unicode hex="0040"/>
  <guideline x="503" y="264" angle="86.6499"/>
  <outline>
    <contour>
      <point x="866" y="-234" type="curve" smooth="yes"/>
      <point x="1070" y="-234"/>
      <point x="1268" y="-174"/>
      <point x="1428" y="-64" type="curve"/>
      <point x="1348" y="116" type="line"/>
      <point x="1210" y="14"/>
      <point x="1042" y="-40"/>
      <point x="862" y="-40" type="curve" smooth="yes"/>
      <point x="520" y="-40"/>
      <point x="288" y="170"/>
      <point x="288" y="480" type="curve" smooth="yes"/>
      <point x="288" y="810"/>
      <point x="540" y="1054"/>
      <point x="878" y="1054" type="curve" smooth="yes"/>
      <point x="1200" y="1054"/>
      <point x="1420" y="860"/>
      <point x="1420" y="576" type="curve" smooth="yes"/>
      <point x="1420" y="428"/>
      <point x="1368" y="346"/>
      <point x="1274" y="346" type="curve" smooth="yes"/>
      <point x="1214" y="346"/>
      <point x="1184" y="382"/>
      <point x="1188" y="450" type="curve" smooth="yes"/>
      <point x="1210" y="840" type="line"/>
      <point x="1024" y="840" type="line"/>
      <point x="1022" y="788" type="line"/>
      <point x="956" y="842"/>
      <point x="890" y="866"/>
      <point x="812" y="866" type="curve" smooth="yes"/>
      <point x="602" y="866"/>
      <point x="450" y="708"/>
      <point x="450" y="492" type="curve" smooth="yes"/>
      <point x="450" y="292"/>
      <point x="586" y="154"/>
      <point x="784" y="154" type="curve" smooth="yes"/>
      <point x="882" y="154"/>
      <point x="954" y="186"/>
      <point x="1028" y="262" type="curve"/>
      <point x="1072" y="192"/>
      <point x="1150" y="154"/>
      <point x="1254" y="154" type="curve" smooth="yes"/>
      <point x="1460" y="154"/>
      <point x="1628" y="344"/>
      <point x="1628" y="576" type="curve" smooth="yes"/>
      <point x="1628" y="970"/>
      <point x="1324" y="1242"/>
      <point x="884" y="1242" type="curve" smooth="yes"/>
      <point x="422" y="1242"/>
      <point x="80" y="920"/>
      <point x="80" y="486" type="curve" smooth="yes"/>
      <point x="80" y="60"/>
      <point x="402" y="-234"/>
    </contour>
    <contour>
      <point x="810" y="366" type="curve" smooth="yes"/>
      <point x="740" y="366"/>
      <point x="698" y="412"/>
      <point x="698" y="490" type="curve" smooth="yes"/>
      <point x="698" y="588"/>
      <point x="754" y="652"/>
      <point x="838" y="652" type="curve" smooth="yes"/>
      <point x="910" y="652"/>
      <point x="952" y="606"/>
      <point x="952" y="528" type="curve" smooth="yes"/>
      <point x="952" y="428"/>
      <point x="896" y="366"/>
    </contour>
  </outline>
</glyph>
<glyph name="C" format="2">
  <advance width="1416"/>
  <unicode hex="0043"/>
  <anchor x="782" y="0" name="bottom"/>
  <anchor x="782" y="1400" name="top"/>
  <outline>
    <contour>
      <point x="822" y="-30" type="curve" smooth="yes"/>
      <point x="1078" y="-30"/>
      <point x="1260" y="42"/>
      <point x="1386" y="138" type="curve"/>
      <point x="1202" y="476" type="line"/>
      <point x="1094" y="398"/>
      <point x="972" y="364"/>
      <point x="858" y="364" type="curve" smooth="yes"/>
      <point x="634" y="364"/>
      <point x="504" y="490"/>
      <point x="504" y="700" type="curve" smooth="yes"/>
      <point x="504" y="906"/>
      <point x="628" y="1036"/>
      <point x="854" y="1036" type="curve" smooth="yes"/>
      <point x="980" y="1036"/>
      <point x="1086" y="996"/>
      <point x="1158" y="918" type="curve"/>
      <point x="1356" y="1250" type="line"/>
      <point x="1220" y="1364"/>
      <point x="1076" y="1430"/>
      <point x="828" y="1430" type="curve" smooth="yes"/>
      <point x="392" y="1430"/>
      <point x="80" y="1128"/>
      <point x="80" y="694" type="curve" smooth="yes"/>
      <point x="80" y="248"/>
      <point x="386" y="-30"/>
    </contour>
  </outline>
</glyph>
<glyph name="D" format="2">
  <advance width="1490"/>
  <unicode hex="0044"/>
  <anchor x="440" y="712" name="bar"/>
  <anchor x="724" y="1400" name="top"/>
  <outline>
    <contour>
      <point x="156" y="0" type="line"/>
      <point x="664" y="0" type="line" smooth="yes"/>
      <point x="1114" y="0"/>
      <point x="1410" y="280"/>
      <point x="1410" y="700" type="curve" smooth="yes"/>
      <point x="1410" y="1116"/>
      <point x="1112" y="1400"/>
      <point x="664" y="1400" type="curve" smooth="yes"/>
      <point x="156" y="1400" type="line"/>
    </contour>
    <contour>
      <point x="560" y="376" type="line"/>
      <point x="560" y="1024" type="line"/>
      <point x="654" y="1024" type="line" smooth="yes"/>
      <point x="850" y="1024"/>
      <point x="986" y="920"/>
      <point x="986" y="700" type="curve" smooth="yes"/>
      <point x="986" y="480"/>
      <point x="850" y="376"/>
      <point x="654" y="376" type="curve" smooth="yes"/>
    </contour>
  </outline>
</glyph>
<glyph name="E" format="2">
  <advance width="1306"/>
  <unicode hex="0045"/>
  <anchor x="670" y="0" name="bottom"/>
  <anchor x="1202" y="0" name="ogonek"/>
  <anchor x="670" y="1400" name="top"/>
  <anchor x="40" y="1400" name="topleft"/>
  <outline>
    <contour>
      <point x="156" y="0" type="line"/>
      <point x="1202" y="0" type="line"/>
      <point x="1202" y="352" type="line"/>
      <point x="560" y="352" type="line"/>
      <point x="560" y="552" type="line"/>
      <point x="1080" y="552" type="line"/>
      <point x="1080" y="870" type="line"/>
      <point x="560" y="870" type="line"/>
      <point x="560" y="1052" type="line"/>
      <point x="1194" y="1052" type="line"/>
      <point x="1194" y="1400" type="line"/>
      <point x="156" y="1400" type="line"/>
    </contour>
  </outline>
</glyph>
<glyph name="F" format="2">
  <advance width="1216"/>
  <unicode hex="0046"/>
  <outline>
    <contour>
      <point x="156" y="0" type="line"/>
      <point x="560" y="0" type="line"/>
      <point x="560" y="466" type="line"/>
      <point x="1054" y="466" type="line"/>
      <point x="1054" y="818" type="line"/>
      <point x="560" y="818" type="line"/>
      <point x="560" y="1032" type="line"/>
      <point x="1116" y="1032" type="line"/>
      <point x="1116" y="1400" type="line"/>
      <point x="156" y="1400" type="line"/>
    </contour>
  </outline>
</glyph>
<glyph name="G" format="2">
  <advance width="1522"/>
  <unicode hex="0047"/>
  <anchor x="860" y="0" name="bottom"/>
  <anchor x="800" y="1400" name="top"/>
  <outline>
    <contour>
      <point x="874" y="-32" type="curve" smooth="yes"/>
      <point x="1034" y="-32"/>
      <point x="1250" y="12"/>
      <point x="1386" y="84" type="curve"/>
      <point x="1386" y="838" type="line"/>
      <point x="770" y="838" type="line"/>
      <point x="770" y="522" type="line"/>
      <point x="1036" y="522" type="line"/>
      <point x="1036" y="334" type="line"/>
      <point x="990" y="324"/>
      <point x="942" y="318"/>
      <point x="900" y="318" type="curve" smooth="yes"/>
      <point x="682" y="318"/>
      <point x="496" y="440"/>
      <point x="496" y="696" type="curve" smooth="yes"/>
      <point x="496" y="928"/>
      <point x="640" y="1068"/>
      <point x="892" y="1068" type="curve" smooth="yes"/>
      <point x="1012" y="1068"/>
      <point x="1110" y="1040"/>
      <point x="1202" y="980" type="curve"/>
      <point x="1368" y="1291" type="line"/>
      <point x="1188" y="1405"/>
      <point x="1005" y="1430"/>
      <point x="860" y="1430" type="curve" smooth="yes"/>
      <point x="434" y="1430"/>
      <point x="80" y="1154"/>
      <point x="80" y="700" type="curve" smooth="yes"/>
      <point x="80" y="240"/>
      <point x="448" y="-32"/>
    </contour>
  </outline>
</glyph>
<glyph name="L" format="2">
  <advance width="1150"/>
  <unicode hex="004C"/>
  <anchor x="624" y="0" name="bottom"/>
  <anchor x="560" y="1440" name="caron"/>
  <anchor x="358" y="1400" name="top"/>
  <outline>
    <contour>
      <point x="156" y="0" type="line"/>
      <point x="1090" y="0" type="line"/>
      <point x="1090" y="368" type="line"/>
      <point x="560" y="368" type="line"/>
      <point x="560" y="1400" type="line"/>
      <point x="156" y="1400" type="line"/>
    </contour>
  </outline>
</glyph>
<glyph name="O" format="2">
  <advance width="1668"/>
  <unicode hex="004F"/>
  <anchor x="834" y="0" name="bottom"/>
  <anchor x="1238" y="1400" name="horn"/>
  <anchor x="1094" y="0" name="ogonek"/>
  <anchor x="834" y="1400" name="top"/>
  <anchor x="100" y="1400" name="topleft"/>
  <outline>
    <contour>
      <point x="834" y="-30" type="curve" smooth="yes"/>
      <point x="1270" y="-30"/>
      <point x="1588" y="286"/>
      <point x="1588" y="700" type="curve" smooth="yes"/>
      <point x="1588" y="1108"/>
      <point x="1270" y="1430"/>
      <point x="834" y="1430" type="curve" smooth="yes"/>
      <point x="396" y="1430"/>
      <point x="80" y="1116"/>
      <point x="80" y="700" type="curve" smooth="yes"/>
      <point x="80" y="286"/>
      <point x="396" y="-30"/>
    </contour>
    <contour>
      <point x="834" y="348" type="curve" smooth="yes"/>
      <point x="640" y="348"/>
      <point x="504" y="484"/>
      <point x="504" y="700" type="curve" smooth="yes"/>
      <point x="504" y="916"/>
      <point x="640" y="1052"/>
      <point x="834" y="1052" type="curve" smooth="yes"/>
      <point x="1028" y="1052"/>
      <point x="1164" y="916"/>
      <point x="1164" y="700" type="curve" smooth="yes"/>
      <point x="1164" y="484"/>
      <point x="1028" y="348"/>
    </contour>
  </outline>
</glyph>
<glyph name="R" format="2">
  <advance width="1410"/>
  <unicode hex="0052"/>
  <anchor x="734" y="0" name="bottom"/>
  <anchor x="668" y="1400" name="top"/>
  <outline>
    <contour>
      <point x="156" y="0" type="line"/>
      <point x="560" y="0" type="line"/>
      <point x="560" y="482" type="line"/>
      <point x="638" y="482" type="line"/>
      <point x="900" y="0" type="line"/>
      <point x="1376" y="0" type="line"/>
      <point x="1030" y="572" type="line"/>
      <point x="1174" y="632"/>
      <point x="1294" y="760"/>
      <point x="1294" y="964" type="curve" smooth="yes"/>
      <point x="1294" y="1242"/>
      <point x="1078" y="1400"/>
      <point x="750" y="1400" type="curve" smooth="yes"/>
      <point x="156" y="1400" type="line"/>
    </contour>
    <contour>
      <point x="560" y="800" type="line"/>
      <point x="560" y="1072" type="line"/>
      <point x="710" y="1072" type="line" smooth="yes"/>
      <point x="818" y="1072"/>
      <point x="886" y="1038"/>
      <point x="886" y="936" type="curve" smooth="yes"/>
      <point x="886" y="834"/>
      <point x="818" y="800"/>
      <point x="708" y="800" type="curve" smooth="yes"/>
    </contour>
  </outline>
</glyph>
<glyph name="U" format="2">
  <advance width="1542"/>
  <unicode hex="0055"/>
  <guideline x="987"/>
  <anchor x="771" y="0" name="bottom"/>
  <anchor x="1393" y="1400" name="horn"/>
  <anchor x="1187" y="0" name="ogonek"/>
  <anchor x="771" y="1400" name="top"/>
  <outline>
    <contour>
      <point x="771" y="-30" type="curve" smooth="yes"/>
      <point x="1177" y="-30"/>
      <point x="1393" y="226"/>
      <point x="1393" y="596" type="curve" smooth="yes"/>
      <point x="1393" y="1400" type="line"/>
      <point x="987" y="1400" type="line"/>
      <point x="987" y="574" type="line" smooth="yes"/>
      <point x="987" y="420"/>
      <point x="909" y="348"/>
      <point x="771" y="348" type="curve" smooth="yes"/>
      <point x="631" y="348"/>
      <point x="553" y="420"/>
      <point x="553" y="574" type="curve" smooth="yes"/>
      <point x="553" y="1400" type="line"/>
      <point x="149" y="1400" type="line"/>
      <point x="149" y="596" type="line" smooth="yes"/>
      <point x="149" y="224"/>
      <point x="365" y="-30"/>
    </contour>
  </outline>
</glyph>
<glyph name="Y" format="2">
  <advance width="1342"/>
  <unicode hex="0059"/>
  <anchor x="672" y="0" name="bottom"/>
  <anchor x="670" y="1400" name="top"/>
  <anchor x="-60" y="1400" name="topleft"/>
  <outline>
    <contour>
      <point x="468" y="0" type="line"/>
      <point x="874" y="0" type="line"/>
      <point x="874" y="568" type="line"/>
      <point x="1362" y="1400" type="line"/>
      <point x="924" y="1400" type="line"/>
      <point x="678" y="958" type="line"/>
      <point x="430" y="1400" type="line"/>
      <point x="-20" y="1400" type="line"/>
      <point x="468" y="572" type="line"/>
    </contour>
  </outline>
</glyph>
<glyph name="backslash" format="2">
  <advance width="948"/>
  <unicode hex="005C"/>
  <outline>
    <contour>
      <point x="656" y="-430" type="line"/>
      <point x="978" y="-304" type="line"/>
      <point x="292" y="1410" type="line"/>
      <point x="-30" y="1284" type="line"/>
    </contour>
  </outline>
</glyph>
<glyph name="a" format="2">
  <advance width="1203"/>
  <unicode hex="0061"/>
  <anchor x="570" y="0" name="bottom"/>
  <anchor x="1088" y="0" name="ogonek"/>
  <anchor x="570" y="1040" name="top"/>
  <outline>
    <contour>
      <point x="422" y="-30" type="curve" smooth="yes"/>
      <point x="568" y="-30"/>
      <point x="684" y="18"/>
      <point x="748" y="102" type="curve"/>
      <point x="748" y="0" type="line"/>
      <point x="1088" y="0" type="line"/>
      <point x="1088" y="620" type="line" smooth="yes"/>
      <point x="1088" y="944"/>
      <point x="868" y="1080"/>
      <point x="570" y="1080" type="curve" smooth="yes"/>
      <point x="413" y="1080"/>
      <point x="244" y="1038"/>
      <point x="106" y="954" type="curve"/>
      <point x="204" y="688" type="line"/>
      <point x="282" y="746"/>
      <point x="393" y="780"/>
      <point x="500" y="780" type="curve" smooth="yes"/>
      <point x="659" y="780"/>
      <point x="708" y="710"/>
      <point x="708" y="614" type="curve" smooth="yes"/>
      <point x="708" y="402" type="line" smooth="yes"/>
      <point x="708" y="296"/>
      <point x="632" y="250"/>
      <point x="537" y="250" type="curve" smooth="yes"/>
      <point x="466" y="250"/>
      <point x="418" y="276"/>
      <point x="418" y="331" type="curve" smooth="yes"/>
      <point x="418" y="432"/>
      <point x="580" y="450"/>
      <point x="762" y="410" type="curve"/>
      <point x="760" y="648" type="line"/>
      <point x="302" y="686"/>
      <point x="56" y="556"/>
      <point x="56" y="308" type="curve" smooth="yes"/>
      <point x="56" y="94"/>
      <point x="222" y="-30"/>
    </contour>
  </outline>
</glyph>
<glyph name="b" format="2">
  <advance width="1364"/>
  <unicode hex="0062"/>
  <outline>
    <contour>
      <point x="800" y="-30" type="curve" smooth="yes"/>
      <point x="1092" y="-30"/>
      <point x="1314" y="180"/>
      <point x="1314" y="520" type="curve" smooth="yes"/>
      <point x="1314" y="834"/>
      <point x="1096" y="1070"/>
      <point x="792" y="1070" type="curve" smooth="yes"/>
      <point x="652" y="1070"/>
      <point x="530" y="1018"/>
      <point x="434" y="900" type="curve"/>
      <point x="526" y="808" type="line"/>
      <point x="526" y="1440" type="line"/>
      <point x="128" y="1440" type="line"/>
      <point x="128" y="0" type="line"/>
      <point x="468" y="0" type="line"/>
      <point x="468" y="282" type="line"/>
      <point x="414" y="192" type="line"/>
      <point x="464" y="58"/>
      <point x="614" y="-30"/>
    </contour>
    <contour>
      <point x="726" y="310" type="curve" smooth="yes"/>
      <point x="614" y="310"/>
      <point x="526" y="390"/>
      <point x="526" y="520" type="curve" smooth="yes"/>
      <point x="526" y="650"/>
      <point x="612" y="730"/>
      <point x="726" y="730" type="curve" smooth="yes"/>
      <point x="840" y="730"/>
      <point x="926" y="650"/>
      <point x="926" y="520" type="curve" smooth="yes"/>
      <point x="926" y="390"/>
      <point x="838" y="310"/>
    </contour>
  </outline>
</glyph>
<glyph name="c" format="2">
  <advance width="1115"/>
  <unicode hex="0063"/>
  <anchor x="592" y="0" name="bottom"/>
  <anchor x="604" y="1040" name="top"/>
  <outline>
    <contour>
      <point x="632" y="-30" type="curve" smooth="yes"/>
      <point x="788" y="-30"/>
      <point x="958" y="24"/>
      <point x="1078" y="114" type="curve"/>
      <point x="926" y="416" type="line"/>
      <point x="848" y="344"/>
      <point x="766" y="310"/>
      <point x="674" y="310" type="curve" smooth="yes"/>
      <point x="530" y="310"/>
      <point x="444" y="388"/>
      <point x="444" y="520" type="curve" smooth="yes"/>
      <point x="444" y="654"/>
      <point x="528" y="730"/>
      <point x="672" y="730" type="curve" smooth="yes"/>
      <point x="754" y="730"/>
      <point x="832" y="702"/>
      <point x="900" y="638" type="curve"/>
      <point x="1070" y="932" type="line"/>
      <point x="956" y="1022"/>
      <point x="810" y="1070"/>
      <point x="644" y="1070" type="curve" smooth="yes"/>
      <point x="308" y="1070"/>
      <point x="50" y="832"/>
      <point x="50" y="520" type="curve" smooth="yes"/>
      <point x="50" y="206"/>
      <point x="300" y="-30"/>
    </contour>
  </outline>
</glyph>
<glyph name="g" format="2">
  <advance width="1250"/>
  <unicode hex="0067"/>
  <guideline x="217" y="-19" angle="354.2894"/>
  <anchor x="594" y="1040" name="top"/>
  <outline>
    <contour>
      <point x="530" y="-450" type="curve" smooth="yes"/>
      <point x="916" y="-450"/>
      <point x="1168" y="-292"/>
      <point x="1168" y="-72" type="curve" smooth="yes"/>
      <point x="1168" y="120"/>
      <point x="996" y="194"/>
      <point x="742" y="218" type="curve" smooth="yes"/>
      <point x="564" y="234" type="line" smooth="yes"/>
      <point x="472" y="242"/>
      <point x="452" y="260"/>
      <point x="452" y="282" type="curve" smooth="yes"/>
      <point x="452" y="310"/>
      <point x="486" y="330"/>
      <point x="592" y="328" type="curve"/>
      <point x="526" y="470" type="line"/>
      <point x="308" y="480"/>
      <point x="136" y="352"/>
      <point x="136" y="220" type="curve" smooth="yes"/>
      <point x="136" y="148"/>
      <point x="170" y="90"/>
      <point x="246" y="44" type="curve"/>
      <point x="106" y="14"/>
      <point x="20" y="-76"/>
      <point x="20" y="-172" type="curve" smooth="yes"/>
      <point x="20" y="-344"/>
      <point x="220" y="-450"/>
    </contour>
    <contour>
      <point x="594" y="-208" type="curve" smooth="yes"/>
      <point x="450" y="-208"/>
      <point x="358" y="-174"/>
      <point x="358" y="-122" type="curve" smooth="yes"/>
      <point x="358" y="-86"/>
      <point x="400" y="-56"/>
      <point x="476" y="-46" type="curve"/>
      <point x="678" y="-62" type="line" smooth="yes"/>
      <point x="772" y="-70"/>
      <point x="810" y="-86"/>
      <point x="810" y="-126" type="curve" smooth="yes"/>
      <point x="810" y="-176"/>
      <point x="726" y="-208"/>
    </contour>
    <contour>
      <point x="574" y="320" type="curve" smooth="yes"/>
      <point x="858" y="320"/>
      <point x="1048" y="488"/>
      <point x="1048" y="696" type="curve" smooth="yes"/>
      <point x="1048" y="908"/>
      <point x="852" y="1070"/>
      <point x="574" y="1070" type="curve" smooth="yes"/>
      <point x="294" y="1070"/>
      <point x="98" y="904"/>
      <point x="98" y="696" type="curve" smooth="yes"/>
      <point x="98" y="482"/>
      <point x="288" y="320"/>
    </contour>
    <contour>
      <point x="574" y="580" type="curve" smooth="yes"/>
      <point x="490" y="580"/>
      <point x="424" y="628"/>
      <point x="424" y="696" type="curve" smooth="yes"/>
      <point x="424" y="764"/>
      <point x="490" y="812"/>
      <point x="574" y="812" type="curve" smooth="yes"/>
      <point x="656" y="812"/>
      <point x="724" y="764"/>
      <point x="724" y="696" type="curve" smooth="yes"/>
      <point x="724" y="628"/>
      <point x="656" y="580"/>
    </contour>
    <contour>
      <point x="726" y="748" type="line"/>
      <point x="1228" y="728" type="line"/>
      <point x="1228" y="1040" type="line"/>
      <point x="574" y="1000" type="line"/>
    </contour>
  </outline>
</glyph>
<glyph name="k" format="2">
  <advance width="1272"/>
  <unicode hex="006B"/>
  <anchor x="672" y="0" name="bottom"/>
  <outline>
    <contour>
      <point x="128" y="0" type="line"/>
      <point x="528" y="0" type="line"/>
      <point x="528" y="276" type="line"/>
      <point x="588" y="344" type="line"/>
      <point x="788" y="0" type="line"/>
      <point x="1258" y="0" type="line"/>
      <point x="878" y="606" type="line"/>
      <point x="1240" y="1040" type="line"/>
      <point x="780" y="1040" type="line"/>
      <point x="528" y="744" type="line"/>
      <point x="528" y="1440" type="line"/>
      <point x="128" y="1440" type="line"/>
    </contour>
  </outline>
</glyph>
<glyph name="l" format="2">
  <advance width="656"/>
  <unicode hex="006C"/>
  <anchor x="328" y="0" name="bottom"/>
  <anchor x="528" y="1440" name="caron"/>
  <anchor x="328" y="1440" name="top"/>
  <outline>
    <contour>
      <point x="128" y="0" type="line"/>
      <point x="528" y="0" type="line"/>
      <point x="528" y="1440" type="line"/>
      <point x="128" y="1440" type="line"/>
    </contour>
  </outline>
</glyph>
<glyph name="n" format="2">
  <advance width="1366"/>
  <unicode hex="006E"/>
  <anchor x="688" y="0" name="bottom"/>
  <anchor x="690" y="1040" name="top"/>
  <outline>
    <contour>
      <point x="128" y="0" type="line"/>
      <point x="528" y="0" type="line"/>
      <point x="528" y="536" type="line" smooth="yes"/>
      <point x="528" y="638"/>
      <point x="586" y="710"/>
      <point x="690" y="710" type="curve" smooth="yes"/>
      <point x="798" y="710"/>
      <point x="848" y="646"/>
      <point x="848" y="536" type="curve" smooth="yes"/>
      <point x="848" y="0" type="line"/>
      <point x="1248" y="0" type="line"/>
      <point x="1248" y="662" type="line" smooth="yes"/>
      <point x="1248" y="874"/>
      <point x="1116" y="1070"/>
      <point x="816" y="1070" type="curve" smooth="yes"/>
      <point x="702" y="1070"/>
      <point x="600" y="1030"/>
      <point x="528" y="944" type="curve"/>
      <point x="528" y="1040" type="line"/>
      <point x="128" y="1040" type="line"/>
    </contour>
  </outline>
</glyph>
<glyph name="o" format="2">
  <advance width="1276"/>
  <unicode hex="006F"/>
  <anchor x="638" y="0" name="bottom"/>
  <anchor x="1038" y="1040" name="horn"/>
  <anchor x="912" y="0" name="ogonek"/>
  <anchor x="638" y="1040" name="top"/>
  <outline>
    <contour>
      <point x="638" y="-30" type="curve" smooth="yes"/>
      <point x="986" y="-30"/>
      <point x="1226" y="232"/>
      <point x="1226" y="520" type="curve" smooth="yes"/>
      <point x="1226" y="820"/>
      <point x="986" y="1070"/>
      <point x="638" y="1070" type="curve" smooth="yes"/>
      <point x="290" y="1070"/>
      <point x="50" y="808"/>
      <point x="50" y="520" type="curve" smooth="yes"/>
      <point x="50" y="220"/>
      <point x="290" y="-30"/>
    </contour>
    <contour>
      <point x="638" y="310" type="curve" smooth="yes"/>
      <point x="526" y="310"/>
      <point x="438" y="390"/>
      <point x="438" y="520" type="curve" smooth="yes"/>
      <point x="438" y="650"/>
      <point x="524" y="730"/>
      <point x="638" y="730" type="curve" smooth="yes"/>
      <point x="752" y="730"/>
      <point x="838" y="650"/>
      <point x="838" y="520" type="curve" smooth="yes"/>
      <point x="838" y="390"/>
      <point x="750" y="310"/>
    </contour>
  </outline>
</glyph>
<glyph name="v" format="2">
  <advance width="1178"/>
  <unicode hex="0076"/>
  <outline>
    <contour>
      <point x="364" y="0" type="line"/>
      <point x="832" y="0" type="line"/>
      <point x="1168" y="1040" type="line"/>
      <point x="752" y="1040" type="line"/>
      <point x="578" y="346" type="line"/>
      <point x="616" y="346" type="line"/>
      <point x="436" y="1040" type="line"/>
      <point x="10" y="1040" type="line"/>
    </contour>
  </outline>
</glyph>
<glyph name="y" format="2">
  <advance width="1236"/>
  <unicode hex="0079"/>
  <anchor x="1106" y="0" name="bottom"/>
  <anchor x="608" y="1040" name="top"/>
  <outline>
    <contour>
      <point x="314" y="-446" type="curve" smooth="yes"/>
      <point x="514" y="-446"/>
      <point x="696" y="-348"/>
      <point x="806" y="-74" type="curve" smooth="yes"/>
      <point x="1226" y="1040" type="line"/>
      <point x="804" y="1040" type="line"/>
      <point x="616" y="386" type="line"/>
      <point x="422" y="1040" type="line"/>
      <point x="-10" y="1040" type="line"/>
      <point x="390" y="4" type="line"/>
      <point x="386" y="-12" type="line" smooth="yes"/>
      <point x="370" y="-70"/>
      <point x="314" y="-88"/>
      <point x="254" y="-88" type="curve" smooth="yes"/>
      <point x="204" y="-88"/>
      <point x="146" y="-74"/>
      <point x="102" y="-52" type="curve"/>
      <point x="19" y="-384" type="line"/>
      <point x="100" y="-426"/>
      <point x="206" y="-446"/>
    </contour>
  </outline>
</glyph>
<glyph name="cent" format="2">
  <advance width="1296"/>
  <unicode hex="00A2"/>
  <outline>
    <contour>
      <point x="580" y="-160" type="line"/>
      <point x="840" y="-160" type="line"/>
      <point x="840" y="10" type="line"/>
      <point x="934" y="24"/>
      <point x="1020" y="50"/>
      <point x="1088" y="98" type="curve"/>
      <point x="996" y="382" type="line"/>
      <point x="942" y="352"/>
      <point x="890" y="336"/>
      <point x="834" y="330" type="curve"/>
      <point x="834" y="712" type="line"/>
      <point x="878" y="706"/>
      <point x="926" y="694"/>
      <point x="968" y="670" type="curve"/>
      <point x="1102" y="924" type="line"/>
      <point x="1042" y="972"/>
      <point x="938" y="1016"/>
      <point x="840" y="1030" type="curve"/>
      <point x="840" y="1200" type="line"/>
      <point x="580" y="1200" type="line"/>
      <point x="580" y="1028" type="line"/>
      <point x="328" y="980"/>
      <point x="160" y="778"/>
      <point x="160" y="520" type="curve" smooth="yes"/>
      <point x="160" y="266"/>
      <point x="322" y="56"/>
      <point x="580" y="12" type="curve"/>
    </contour>
    <contour>
      <point x="586" y="340" type="line"/>
      <point x="514" y="352"/>
      <point x="460" y="422"/>
      <point x="460" y="520" type="curve" smooth="yes"/>
      <point x="460" y="616"/>
      <point x="512" y="698"/>
      <point x="586" y="702" type="curve"/>
    </contour>
  </outline>
</glyph>
<glyph name="sterling" format="2">
  <advance width="1296"/>
  <unicode hex="00A3"/>
  <outline>
    <contour>
      <point x="120" y="0" type="line"/>
      <point x="1228" y="0" type="line"/>
      <point x="1228" y="298" type="line"/>
      <point x="626" y="298" type="line"/>
      <point x="672" y="364"/>
      <point x="692" y="442"/>
      <point x="692" y="506" type="curve" smooth="yes"/>
      <point x="692" y="628"/>
      <point x="610" y="850"/>
      <point x="610" y="954" type="curve" smooth="yes"/>
      <point x="610" y="1056"/>
      <point x="666" y="1128"/>
      <point x="778" y="1128" type="curve" smooth="yes"/>
      <point x="868" y="1128"/>
      <point x="960" y="1100"/>
      <point x="1062" y="1008" type="curve"/>
      <point x="1204" y="1256" type="line"/>
      <point x="1134" y="1342"/>
      <point x="940" y="1430"/>
      <point x="770" y="1430" type="curve" smooth="yes"/>
      <point x="456" y="1430"/>
      <point x="238" y="1244"/>
      <point x="238" y="992" type="curve" smooth="yes"/>
      <point x="238" y="860"/>
      <point x="364" y="580"/>
      <point x="364" y="502" type="curve" smooth="yes"/>
      <point x="364" y="350"/>
      <point x="288" y="308"/>
      <point x="120" y="286" type="curve"/>
    </contour>
    <contour>
      <point x="100" y="560" type="line"/>
      <point x="1016" y="560" type="line"/>
      <point x="1016" y="810" type="line"/>
      <point x="100" y="810" type="line"/>
    </contour>
  </outline>
</glyph>
<glyph name="yen" format="2">
  <advance width="1296"/>
  <unicode hex="00A5"/>
  <outline>
    <contour>
      <point x="456" y="0" type="line"/>
      <point x="824" y="0" type="line"/>
      <point x="824" y="246" type="line"/>
      <point x="1182" y="246" type="line"/>
      <point x="1182" y="472" type="line"/>
      <point x="824" y="472" type="line"/>
      <point x="824" y="584" type="line"/>
      <point x="1182" y="584" type="line"/>
      <point x="1182" y="810" type="line"/>
      <point x="922" y="810" type="line"/>
      <point x="1310" y="1400" type="line"/>
      <point x="920" y="1400" type="line"/>
      <point x="646" y="932" type="line"/>
      <point x="390" y="1400" type="line"/>
      <point x="-14" y="1400" type="line"/>
      <point x="360" y="810" type="line"/>
      <point x="100" y="810" type="line"/>
      <point x="100" y="584" type="line"/>
      <point x="456" y="584" type="line"/>
      <point x="456" y="472" type="line"/>
      <point x="100" y="472" type="line"/>
      <point x="100" y="246" type="line"/>
      <point x="456" y="246" type="line"/>
    </contour>
  </outline>
</glyph>
<glyph name="twosuperior" format="2">
  <advance width="844"/>
  <unicode hex="00B2"/>
  <guideline x="211" y="450" angle="0"/>
  <outline>
    <contour>
      <point x="78" y="722" type="line"/>
      <point x="766" y="722" type="line"/>
      <point x="766" y="934" type="line"/>
      <point x="420" y="934" type="line"/>
      <point x="482" y="988" type="line" smooth="yes"/>
      <point x="676" y="1156"/>
      <point x="740" y="1250"/>
      <point x="740" y="1366" type="curve" smooth="yes"/>
      <point x="740" y="1534"/>
      <point x="606" y="1652"/>
      <point x="390" y="1652" type="curve" smooth="yes"/>
      <point x="270" y="1652"/>
      <point x="147" y="1605"/>
      <point x="57" y="1525" type="curve"/>
      <point x="144" y="1336" type="line"/>
      <point x="204" y="1398"/>
      <point x="280" y="1434"/>
      <point x="364" y="1434" type="curve" smooth="yes"/>
      <point x="450" y="1434"/>
      <point x="500" y="1400"/>
      <point x="500" y="1332" type="curve" smooth="yes"/>
      <point x="500" y="1256"/>
      <point x="438" y="1198"/>
      <point x="276" y="1058" type="curve" smooth="yes"/>
      <point x="78" y="888" type="line"/>
    </contour>
  </outline>
</glyph>
<glyph name="Lslash" format="2">
  <advance width="1190"/>
  <unicode hex="0141"/>
  <anchor x="664" y="0" name="bottom"/>
  <anchor x="600" y="1440" name="caron"/>
  <anchor x="398" y="1400" name="top"/>
  <outline>
    <contour>
      <point x="-22" y="356" type="line"/>
      <point x="370" y="538" type="line"/>
      <point x="370" y="498" type="line"/>
      <point x="1024" y="804" type="line"/>
      <point x="1024" y="1152" type="line"/>
      <point x="370" y="846" type="line"/>
      <point x="370" y="886" type="line"/>
      <point x="-22" y="704" type="line"/>
    </contour>
    <component base="L" xOffset="40"/>
  </outline>
</glyph>
<glyph name="lslash" format="2">
  <advance width="836"/>
  <unicode hex="0142"/>
  <guideline x="810" y="846" angle="270"/>
  <guideline x="810" y="846" angle="115.8592"/>
  <guideline x="26" y="514" angle="115.8592"/>
  <anchor x="418" y="0" name="bottom"/>
  <anchor x="618" y="1440" name="caron"/>
  <anchor x="418" y="1440" name="top"/>
  <outline>
    <contour>
      <point x="95" y="373" type="line"/>
      <point x="418" y="530" type="line"/>
      <point x="418" y="490" type="line"/>
      <point x="879" y="704" type="line"/>
      <point x="741" y="988" type="line"/>
      <point x="418" y="838" type="line"/>
      <point x="418" y="878" type="line"/>
      <point x="-43" y="655" type="line"/>
    </contour>
    <component base="l" xOffset="90"/>
  </outline>
</glyph>
<glyph name="Uogonek" format="2">
  <advance width="1542"/>
  <unicode hex="0172"/>
  <anchor x="771" y="1400" name="top"/>
  <outline>
    <contour>
      <point x="937" y="-450" type="curve" smooth="yes"/>
      <point x="1029" y="-450"/>
      <point x="1119" y="-422"/>
      <point x="1192" y="-370" type="curve"/>
      <point x="1105" y="-174" type="line"/>
      <point x="1077" y="-204"/>
      <point x="1039" y="-222"/>
      <point x="1003" y="-222" type="curve" smooth="yes"/>
      <point x="953" y="-222"/>
      <point x="921" y="-192"/>
      <point x="921" y="-145" type="curve" smooth="yes"/>
      <point x="921" y="-74"/>
      <point x="958" y="-15"/>
      <point x="1030" y="12" type="curve" smooth="yes"/>
      <point x="1268" y="100"/>
      <point x="1393" y="315"/>
      <point x="1393" y="596" type="curve" smooth="yes"/>
      <point x="1393" y="1400" type="line"/>
      <point x="987" y="1400" type="line"/>
      <point x="987" y="574" type="line" smooth="yes"/>
      <point x="987" y="420"/>
      <point x="909" y="348"/>
      <point x="771" y="348" type="curve" smooth="yes"/>
      <point x="631" y="348"/>
      <point x="553" y="420"/>
      <point x="553" y="574" type="curve" smooth="yes"/>
      <point x="553" y="1400" type="line"/>
      <point x="149" y="1400" type="line"/>
      <point x="149" y="596" type="line" smooth="yes"/>
      <point x="149" y="233"/>
      <point x="355" y="-18"/>
      <point x="742" y="-30" type="curve"/>
      <point x="706" y="-84"/>
      <point x="687" y="-148"/>
      <point x="687" y="-219" type="curve" smooth="yes"/>
      <point x="687" y="-354"/>
      <point x="791" y="-450"/>
    </contour>
  </outline>
</glyph>
<glyph name="Schwa" format="2">
  <advance width="1628"/>
  <unicode hex="018F"/>
  <outline>
    <contour>
      <point x="788" y="-30" type="curve" smooth="yes"/>
      <point x="1258" y="-30"/>
      <point x="1548" y="306"/>
      <point x="1548" y="700" type="curve" smooth="yes"/>
      <point x="1548" y="1168"/>
      <point x="1226" y="1430"/>
      <point x="760" y="1430" type="curve" smooth="yes"/>
      <point x="492" y="1430"/>
      <point x="301" y="1338"/>
      <point x="170" y="1236" type="curve"/>
      <point x="350" y="924" type="line"/>
      <point x="446" y="1012"/>
      <point x="590" y="1056"/>
      <point x="734" y="1056" type="curve" smooth="yes"/>
      <point x="1000" y="1056"/>
      <point x="1134" y="920"/>
      <point x="1134" y="700" type="curve" smooth="yes"/>
      <point x="1134" y="458"/>
      <point x="1030" y="308"/>
      <point x="790" y="308" type="curve" smooth="yes"/>
      <point x="590" y="308"/>
      <point x="460" y="428"/>
      <point x="476" y="684" type="curve"/>
      <point x="306" y="526" type="line"/>
      <point x="1300" y="526" type="line"/>
      <point x="1306" y="822" type="line"/>
      <point x="90" y="822" type="line"/>
      <point x="20" y="290"/>
      <point x="314" y="-30"/>
    </contour>
  </outline>
</glyph>
<glyph name="schwa" format="2">
  <advance width="1222"/>
  <unicode hex="0259"/>
  <outline>
    <contour>
      <point x="606" y="-30" type="curve" smooth="yes"/>
      <point x="928" y="-30"/>
      <point x="1172" y="208"/>
      <point x="1172" y="526" type="curve" smooth="yes"/>
      <point x="1172" y="864"/>
      <point x="942" y="1070"/>
      <point x="562" y="1070" type="curve" smooth="yes"/>
      <point x="374" y="1070"/>
      <point x="106" y="972"/>
      <point x="78" y="876" type="curve"/>
      <point x="50" y="1098" type="line"/>
      <point x="238" y="670" type="line"/>
      <point x="336" y="736"/>
      <point x="444" y="770"/>
      <point x="560" y="770" type="curve" smooth="yes"/>
      <point x="740" y="770"/>
      <point x="830" y="690"/>
      <point x="830" y="526" type="curve" smooth="yes"/>
      <point x="830" y="344"/>
      <point x="750" y="250"/>
      <point x="598" y="250" type="curve" smooth="yes"/>
      <point x="460" y="250"/>
      <point x="388" y="338"/>
      <point x="388" y="506" type="curve"/>
      <point x="256" y="382" type="line"/>
      <point x="944" y="382" type="line"/>
      <point x="944" y="642" type="line"/>
      <point x="62" y="642" type="line"/>
      <point x="-6" y="262"/>
      <point x="230" y="-30"/>
    </contour>
  </outline>
</glyph>
<glyph name="tildecomb" format="2">
  <unicode hex="0303"/>
  <anchor x="-638" y="1040" name="_top"/>
  <anchor x="-638" y="1464" name="top"/>
  <outline>
    <contour>
      <point x="-952" y="1144" type="line"/>
      <point x="-920" y="1236"/>
      <point x="-870" y="1278"/>
      <point x="-806" y="1278" type="curve" smooth="yes"/>
      <point x="-704" y="1278"/>
      <point x="-594" y="1170"/>
      <point x="-450" y="1170" type="curve" smooth="yes"/>
      <point x="-316" y="1170"/>
      <point x="-206" y="1250"/>
      <point x="-180" y="1406" type="curve"/>
      <point x="-322" y="1568" type="line"/>
      <point x="-352" y="1476"/>
      <point x="-398" y="1436"/>
      <point x="-460" y="1436" type="curve" smooth="yes"/>
      <point x="-568" y="1436"/>
      <point x="-662" y="1544"/>
      <point x="-804" y="1544" type="curve" smooth="yes"/>
      <point x="-934" y="1544"/>
      <point x="-1036" y="1460"/>
      <point x="-1096" y="1304" type="curve"/>
    </contour>
  </outline>
</glyph>
<glyph name="brevecomb" format="2">
  <unicode hex="0306"/>
  <anchor x="-638" y="1040" name="_top"/>
  <anchor x="-638" y="1484" name="top"/>
  <outline>
    <contour>
      <point x="-638" y="1160" type="curve" smooth="yes"/>
      <point x="-376" y="1160"/>
      <point x="-196" y="1318"/>
      <point x="-200" y="1544" type="curve"/>
      <point x="-520" y="1544" type="line"/>
      <point x="-516" y="1462"/>
      <point x="-562" y="1410"/>
      <point x="-638" y="1410" type="curve" smooth="yes"/>
      <point x="-714" y="1410"/>
      <point x="-760" y="1462"/>
      <point x="-756" y="1544" type="curve"/>
      <point x="-1076" y="1544" type="line"/>
      <point x="-1080" y="1314"/>
      <point x="-906" y="1160"/>
    </contour>
  </outline>
</glyph>
<glyph name="dotaccentcomb" format="2">
  <unicode hex="0307"/>
  <anchor x="-638" y="1040" name="_top"/>
  <anchor x="-638" y="1484" name="top"/>
  <outline>
    <contour>
      <point x="-638" y="1174" type="curve" smooth="yes"/>
      <point x="-514" y="1174"/>
      <point x="-408" y="1254"/>
      <point x="-408" y="1386" type="curve" smooth="yes"/>
      <point x="-408" y="1518"/>
      <point x="-514" y="1598"/>
      <point x="-638" y="1598" type="curve" smooth="yes"/>
      <point x="-762" y="1598"/>
      <point x="-868" y="1518"/>
      <point x="-868" y="1386" type="curve" smooth="yes"/>
      <point x="-868" y="1254"/>
      <point x="-762" y="1174"/>
    </contour>
  </outline>
</glyph>
<glyph name="dieresiscomb" format="2">
  <unicode hex="0308"/>
  <anchor x="-638" y="1040" name="_top"/>
  <anchor x="-638" y="1484" name="top"/>
  <outline>
    <contour>
      <point x="-912" y="1170" type="curve" smooth="yes"/>
      <point x="-804" y="1170"/>
      <point x="-702" y="1248"/>
      <point x="-702" y="1374" type="curve" smooth="yes"/>
      <point x="-702" y="1500"/>
      <point x="-804" y="1578"/>
      <point x="-912" y="1578" type="curve" smooth="yes"/>
      <point x="-1020" y="1578"/>
      <point x="-1122" y="1500"/>
      <point x="-1122" y="1374" type="curve" smooth="yes"/>
      <point x="-1122" y="1248"/>
      <point x="-1020" y="1170"/>
    </contour>
    <contour>
      <point x="-364" y="1170" type="curve" smooth="yes"/>
      <point x="-256" y="1170"/>
      <point x="-154" y="1248"/>
      <point x="-154" y="1374" type="curve" smooth="yes"/>
      <point x="-154" y="1500"/>
      <point x="-256" y="1578"/>
      <point x="-364" y="1578" type="curve" smooth="yes"/>
      <point x="-472" y="1578"/>
      <point x="-574" y="1500"/>
      <point x="-574" y="1374" type="curve" smooth="yes"/>
      <point x="-574" y="1248"/>
      <point x="-472" y="1170"/>
    </contour>
  </outline>
</glyph>
<glyph name="ringcomb" format="2">
  <unicode hex="030A"/>
  <anchor x="-638" y="1040" name="_top"/>
  <anchor x="-638" y="1584" name="top"/>
  <outline>
    <contour>
      <point x="-638" y="1110" type="curve" smooth="yes"/>
      <point x="-472" y="1110"/>
      <point x="-340" y="1232"/>
      <point x="-340" y="1388" type="curve" smooth="yes"/>
      <point x="-340" y="1544"/>
      <point x="-472" y="1666"/>
      <point x="-638" y="1666" type="curve" smooth="yes"/>
      <point x="-806" y="1666"/>
      <point x="-936" y="1544"/>
      <point x="-936" y="1388" type="curve" smooth="yes"/>
      <point x="-936" y="1232"/>
      <point x="-806" y="1110"/>
    </contour>
    <contour>
      <point x="-638" y="1288" type="curve" smooth="yes"/>
      <point x="-698" y="1288"/>
      <point x="-738" y="1330"/>
      <point x="-738" y="1388" type="curve" smooth="yes"/>
      <point x="-738" y="1446"/>
      <point x="-698" y="1488"/>
      <point x="-638" y="1488" type="curve" smooth="yes"/>
      <point x="-578" y="1488"/>
      <point x="-538" y="1446"/>
      <point x="-538" y="1388" type="curve" smooth="yes"/>
      <point x="-538" y="1330"/>
      <point x="-578" y="1288"/>
    </contour>
  </outline>
</glyph>
<glyph name="hungarumlautcomb" format="2">
  <unicode hex="030B"/>
  <anchor x="-638" y="1040" name="_top"/>
  <outline>
    <contour>
      <point x="-566" y="1170" type="line"/>
      <point x="-238" y="1170" type="line"/>
      <point x="-24" y="1544" type="line"/>
      <point x="-388" y="1544" type="line"/>
    </contour>
    <contour>
      <point x="-1076" y="1170" type="line"/>
      <point x="-748" y="1170" type="line"/>
      <point x="-534" y="1544" type="line"/>
      <point x="-898" y="1544" type="line"/>
    </contour>
  </outline>
</glyph>
<glyph name="dblgravecomb" format="2">
  <unicode hex="030F"/>
  <anchor x="-638" y="1040" name="_top"/>
  <outline>
    <contour>
      <point x="-710" y="1170" type="line"/>
      <point x="-908" y="1544" type="line"/>
      <point x="-1302" y="1544" type="line"/>
      <point x="-1068" y="1170" type="line"/>
    </contour>
    <contour>
      <point x="-170" y="1170" type="line"/>
      <point x="-368" y="1544" type="line"/>
      <point x="-762" y="1544" type="line"/>
      <point x="-528" y="1170" type="line"/>
    </contour>
  </outline>
</glyph>
<glyph name="commaturnedabovecomb" format="2">
  <unicode hex="0312"/>
  <anchor x="-638" y="1040" name="_top"/>
  <outline>
    <contour>
      <point x="-626" y="1174" type="curve" smooth="yes"/>
      <point x="-501" y="1174"/>
      <point x="-414" y="1254"/>
      <point x="-414" y="1380" type="curve" smooth="yes"/>
      <point x="-414" y="1499"/>
      <point x="-524" y="1571"/>
      <point x="-651" y="1564" type="curve"/>
      <point x="-599" y="1633"/>
      <point x="-509" y="1701"/>
      <point x="-402" y="1733" type="curve"/>
      <point x="-501" y="1877" type="line"/>
      <point x="-750" y="1742"/>
      <point x="-865" y="1594"/>
      <point x="-865" y="1420" type="curve" smooth="yes"/>
      <point x="-865" y="1276"/>
      <point x="-765" y="1174"/>
    </contour>
  </outline>
</glyph>
<glyph name="horncomb" format="2">
  <unicode hex="031B"/>
  <anchor x="-338" y="1040" name="_horn"/>
  <outline>
    <contour>
      <point x="-270" y="760" type="curve" smooth="yes"/>
      <point x="-94" y="760"/>
      <point x="22" y="876"/>
      <point x="22" y="1022" type="curve" smooth="yes"/>
      <point x="22" y="1114"/>
      <point x="-24" y="1222"/>
      <point x="-118" y="1306" type="curve"/>
      <point x="-336" y="1184" type="line"/>
      <point x="-284" y="1132"/>
      <point x="-262" y="1082"/>
      <point x="-262" y="1046" type="curve" smooth="yes"/>
      <point x="-262" y="1010"/>
      <point x="-288" y="984"/>
      <point x="-338" y="984" type="curve" smooth="yes"/>
      <point x="-418" y="984"/>
      <point x="-540" y="1070"/>
      <point x="-736" y="1070" type="curve"/>
      <point x="-734" y="860" type="line"/>
      <point x="-578" y="860"/>
      <point x="-418" y="760"/>
    </contour>
  </outline>
</glyph>
<glyph name="dieresisbelowcomb" format="2">
  <unicode hex="0324"/>
  <anchor x="-638" y="0" name="_bottom"/>
  <outline>
    <contour>
      <point x="-364" y="-538" type="curve" smooth="yes"/>
      <point x="-256" y="-538"/>
      <point x="-154" y="-460"/>
      <point x="-154" y="-334" type="curve" smooth="yes"/>
      <point x="-154" y="-208"/>
      <point x="-256" y="-130"/>
      <point x="-364" y="-130" type="curve" smooth="yes"/>
      <point x="-472" y="-130"/>
      <point x="-574" y="-208"/>
      <point x="-574" y="-334" type="curve" smooth="yes"/>
      <point x="-574" y="-460"/>
      <point x="-472" y="-538"/>
    </contour>
    <contour>
      <point x="-912" y="-538" type="curve" smooth="yes"/>
      <point x="-804" y="-538"/>
      <point x="-702" y="-460"/>
      <point x="-702" y="-334" type="curve" smooth="yes"/>
      <point x="-702" y="-208"/>
      <point x="-804" y="-130"/>
      <point x="-912" y="-130" type="curve" smooth="yes"/>
      <point x="-1020" y="-130"/>
      <point x="-1122" y="-208"/>
      <point x="-1122" y="-334" type="curve" smooth="yes"/>
      <point x="-1122" y="-460"/>
      <point x="-1020" y="-538"/>
    </contour>
  </outline>
</glyph>
<glyph name="lowernumeral-greek" format="2">
  <advance width="516"/>
  <unicode hex="0375"/>
  <outline>
    <contour>
      <point x="8" y="-420" type="line"/>
      <point x="368" y="-420" type="line"/>
      <point x="462" y="118" type="line"/>
      <point x="180" y="118" type="line"/>
    </contour>
  </outline>
</glyph>
<glyph name="dieresistonos" format="2">
  <unicode hex="0385"/>
  <anchor x="-638" y="1040" name="_top"/>
  <outline>
    <contour>
      <point x="-784" y="1330" type="line"/>
      <point x="-544" y="1330" type="line"/>
      <point x="-422" y="1704" type="line"/>
      <point x="-738" y="1704" type="line"/>
    </contour>
    <contour>
      <point x="-1032" y="1186" type="curve" smooth="yes"/>
      <point x="-928" y="1186"/>
      <point x="-848" y="1260"/>
      <point x="-848" y="1374" type="curve" smooth="yes"/>
      <point x="-848" y="1484"/>
      <point x="-930" y="1562"/>
      <point x="-1032" y="1562" type="curve" smooth="yes"/>
      <point x="-1136" y="1562"/>
      <point x="-1216" y="1488"/>
      <point x="-1216" y="1374" type="curve" smooth="yes"/>
      <point x="-1216" y="1260"/>
      <point x="-1136" y="1186"/>
    </contour>
    <contour>
      <point x="-244" y="1186" type="curve" smooth="yes"/>
      <point x="-140" y="1186"/>
      <point x="-60" y="1260"/>
      <point x="-60" y="1374" type="curve" smooth="yes"/>
      <point x="-60" y="1488"/>
      <point x="-140" y="1562"/>
      <point x="-244" y="1562" type="curve" smooth="yes"/>
      <point x="-348" y="1562"/>
      <point x="-428" y="1490"/>
      <point x="-428" y="1374" type="curve" smooth="yes"/>
      <point x="-428" y="1260"/>
      <point x="-348" y="1186"/>
    </contour>
  </outline>
</glyph>
<glyph name="Theta" format="2">
  <advance width="1668"/>
  <unicode hex="0398"/>
  <outline>
    <contour>
      <point x="834" y="-30" type="curve" smooth="yes"/>
      <point x="1270" y="-30"/>
      <point x="1588" y="286"/>
      <point x="1588" y="700" type="curve" smooth="yes"/>
      <point x="1588" y="1108"/>
      <point x="1270" y="1430"/>
      <point x="834" y="1430" type="curve" smooth="yes"/>
      <point x="396" y="1430"/>
      <point x="80" y="1116"/>
      <point x="80" y="700" type="curve" smooth="yes"/>
      <point x="80" y="286"/>
      <point x="396" y="-30"/>
    </contour>
    <contour>
      <point x="634" y="556" type="line"/>
      <point x="1034" y="556" type="line"/>
      <point x="1034" y="836" type="line"/>
      <point x="634" y="836" type="line"/>
    </contour>
    <contour>
      <point x="834" y="340" type="curve" smooth="yes"/>
      <point x="620" y="340"/>
      <point x="494" y="476"/>
      <point x="494" y="700" type="curve" smooth="yes"/>
      <point x="494" y="924"/>
      <point x="620" y="1060"/>
      <point x="834" y="1060" type="curve" smooth="yes"/>
      <point x="1048" y="1060"/>
      <point x="1174" y="924"/>
      <point x="1174" y="700" type="curve" smooth="yes"/>
      <point x="1174" y="476"/>
      <point x="1048" y="340"/>
    </contour>
  </outline>
</glyph>
<glyph name="Lambda" format="2">
  <advance width="1470"/>
  <unicode hex="039B"/>
  <outline>
    <contour>
      <point x="5" y="0" type="line"/>
      <point x="455" y="0" type="line"/>
      <point x="731" y="890" type="line"/>
      <point x="1007" y="0" type="line"/>
      <point x="1465" y="0" type="line"/>
      <point x="971" y="1400" type="line"/>
      <point x="501" y="1400" type="line"/>
    </contour>
  </outline>
</glyph>
<glyph name="Sigma" format="2">
  <advance width="1198"/>
  <unicode hex="03A3"/>
  <outline>
    <contour>
      <point x="66" y="0" type="line"/>
      <point x="1128" y="0" type="line"/>
      <point x="1128" y="356" type="line"/>
      <point x="560" y="356" type="line"/>
      <point x="862" y="708" type="line"/>
      <point x="574" y="1044" type="line"/>
      <point x="1112" y="1044" type="line"/>
      <point x="1112" y="1400" type="line"/>
      <point x="84" y="1400" type="line"/>
      <point x="84" y="1074" type="line"/>
      <point x="406" y="710" type="line"/>
      <point x="66" y="328" type="line"/>
    </contour>
  </outline>
</glyph>
<glyph name="epsilon" format="2">
  <advance width="1095"/>
  <unicode hex="03B5"/>
  <anchor x="566" y="1040" name="top"/>
  <outline>
    <contour>
      <point x="578" y="-30" type="curve" smooth="yes"/>
      <point x="780" y="-30"/>
      <point x="943" y="12"/>
      <point x="1068" y="92" type="curve"/>
      <point x="956" y="360" type="line"/>
      <point x="851" y="303"/>
      <point x="743" y="276"/>
      <point x="626" y="276" type="curve" smooth="yes"/>
      <point x="523" y="276"/>
      <point x="466" y="297"/>
      <point x="466" y="346" type="curve" smooth="yes"/>
      <point x="466" y="389"/>
      <point x="507" y="404"/>
      <point x="592" y="404" type="curve" smooth="yes"/>
      <point x="750" y="404" type="line"/>
      <point x="750" y="652" type="line"/>
      <point x="576" y="652" type="line" smooth="yes"/>
      <point x="498" y="652"/>
      <point x="464" y="667"/>
      <point x="464" y="703" type="curve" smooth="yes"/>
      <point x="464" y="748"/>
      <point x="524" y="772"/>
      <point x="630" y="772" type="curve" smooth="yes"/>
      <point x="739" y="772"/>
      <point x="843" y="741"/>
      <point x="922" y="684" type="curve"/>
      <point x="1050" y="964" type="line"/>
      <point x="905" y="1040"/>
      <point x="769" y="1070"/>
      <point x="580" y="1070" type="curve" smooth="yes"/>
      <point x="281" y="1070"/>
      <point x="90" y="952"/>
      <point x="90" y="776" type="curve" smooth="yes"/>
      <point x="90" y="667"/>
      <point x="152" y="591"/>
      <point x="268" y="546" type="curve"/>
      <point x="140" y="502"/>
      <point x="70" y="412"/>
      <point x="70" y="300" type="curve" smooth="yes"/>
      <point x="70" y="91"/>
      <point x="262" y="-30"/>
    </contour>
  </outline>
</glyph>
<glyph name="zeta" format="2">
  <advance width="1051"/>
  <unicode hex="03B6"/>
  <outline>
    <contour>
      <point x="938" y="-450" type="line"/>
      <point x="1016" y="-300"/>
      <point x="1050" y="-182"/>
      <point x="1050" y="-90" type="curve" smooth="yes"/>
      <point x="1050" y="80"/>
      <point x="920" y="186"/>
      <point x="692" y="274" type="curve" smooth="yes"/>
      <point x="522" y="340"/>
      <point x="458" y="402"/>
      <point x="458" y="520" type="curve" smooth="yes"/>
      <point x="458" y="702"/>
      <point x="590" y="848"/>
      <point x="1054" y="1180" type="curve"/>
      <point x="1054" y="1440" type="line"/>
      <point x="110" y="1440" type="line"/>
      <point x="110" y="1112" type="line"/>
      <point x="544" y="1112" type="line"/>
      <point x="288" y="938"/>
      <point x="70" y="718"/>
      <point x="70" y="438" type="curve" smooth="yes"/>
      <point x="70" y="184"/>
      <point x="244" y="108"/>
      <point x="438" y="10" type="curve" smooth="yes"/>
      <point x="530" y="-36"/>
      <point x="664" y="-62"/>
      <point x="664" y="-194" type="curve" smooth="yes"/>
      <point x="664" y="-244"/>
      <point x="642" y="-314"/>
      <point x="584" y="-406" type="curve"/>
    </contour>
  </outline>
</glyph>
<glyph name="theta" format="2">
  <advance width="1252"/>
  <unicode hex="03B8"/>
  <outline>
    <contour>
      <point x="626" y="-30" type="curve" smooth="yes"/>
      <point x="936" y="-30"/>
      <point x="1182" y="216"/>
      <point x="1182" y="720" type="curve" smooth="yes"/>
      <point x="1182" y="1226"/>
      <point x="936" y="1470"/>
      <point x="626" y="1470" type="curve" smooth="yes"/>
      <point x="316" y="1470"/>
      <point x="70" y="1226"/>
      <point x="70" y="720" type="curve" smooth="yes"/>
      <point x="70" y="216"/>
      <point x="316" y="-30"/>
    </contour>
    <contour>
      <point x="626" y="310" type="curve" smooth="yes"/>
      <point x="518" y="310"/>
      <point x="472" y="388"/>
      <point x="470" y="564" type="curve"/>
      <point x="782" y="564" type="line"/>
      <point x="780" y="388"/>
      <point x="734" y="310"/>
    </contour>
    <contour>
      <point x="470" y="876" type="line"/>
      <point x="472" y="1052"/>
      <point x="518" y="1130"/>
      <point x="626" y="1130" type="curve" smooth="yes"/>
      <point x="734" y="1130"/>
      <point x="780" y="1052"/>
      <point x="782" y="876" type="curve"/>
    </contour>
  </outline>
</glyph>
<glyph name="iota" format="2">
  <advance width="769"/>
  <unicode hex="03B9"/>
  <anchor x="318" y="1040" name="top"/>
  <outline>
    <contour>
      <point x="502" y="-28" type="curve" smooth="yes"/>
      <point x="574" y="-28"/>
      <point x="652" y="-16"/>
      <point x="738" y="8" type="curve"/>
      <point x="690" y="322" type="line"/>
      <point x="660" y="312"/>
      <point x="632" y="306"/>
      <point x="608" y="306" type="curve" smooth="yes"/>
      <point x="552" y="306"/>
      <point x="518" y="338"/>
      <point x="518" y="426" type="curve" smooth="yes"/>
      <point x="518" y="1040" type="line"/>
      <point x="118" y="1040" type="line"/>
      <point x="118" y="384" type="line" smooth="yes"/>
      <point x="118" y="98"/>
      <point x="270" y="-28"/>
    </contour>
  </outline>
</glyph>
<glyph name="lambda" format="2">
  <advance width="1286"/>
  <unicode hex="03BB"/>
  <outline>
    <contour>
      <point x="20" y="0" type="line"/>
      <point x="440" y="0" type="line"/>
      <point x="640" y="638" type="line"/>
      <point x="832" y="0" type="line"/>
      <point x="1266" y="0" type="line"/>
      <point x="846" y="1118" type="line" smooth="yes"/>
      <point x="744" y="1389"/>
      <point x="594" y="1470"/>
      <point x="370" y="1470" type="curve" smooth="yes"/>
      <point x="286" y="1470"/>
      <point x="172" y="1456"/>
      <point x="86" y="1430" type="curve"/>
      <point x="144" y="1110" type="line"/>
      <point x="208" y="1122"/>
      <point x="266" y="1132"/>
      <point x="314" y="1132" type="curve" smooth="yes"/>
      <point x="376" y="1132"/>
      <point x="434" y="1114"/>
      <point x="448" y="1056" type="curve" smooth="yes"/>
      <point x="452" y="1040" type="line"/>
    </contour>
  </outline>
</glyph>
<glyph name="nu" format="2">
  <advance width="1255"/>
  <unicode hex="03BD"/>
  <outline>
    <contour>
      <point x="358" y="0" type="line"/>
      <point x="798" y="0" type="line"/>
      <point x="989" y="310"/>
      <point x="1136" y="662"/>
      <point x="1190" y="995" type="curve"/>
      <point x="783" y="1059" type="line"/>
      <point x="747" y="809"/>
      <point x="671" y="492"/>
      <point x="557" y="299" type="curve"/>
      <point x="649" y="218" type="line"/>
      <point x="436" y="1040" type="line"/>
      <point x="10" y="1040" type="line"/>
    </contour>
  </outline>
</glyph>
<glyph name="rho" format="2">
  <advance width="1356"/>
  <unicode hex="03C1"/>
  <outline>
    <contour>
      <point x="120" y="-420" type="line"/>
      <point x="518" y="-420" type="line"/>
      <point x="518" y="52" type="line"/>
      <point x="596" y="-4"/>
      <point x="686" y="-30"/>
      <point x="784" y="-30" type="curve" smooth="yes"/>
      <point x="1088" y="-30"/>
      <point x="1306" y="206"/>
      <point x="1306" y="520" type="curve" smooth="yes"/>
      <point x="1306" y="820"/>
      <point x="1066" y="1070"/>
      <point x="718" y="1070" type="curve" smooth="yes"/>
      <point x="360" y="1070"/>
      <point x="120" y="826"/>
      <point x="120" y="494" type="curve" smooth="yes"/>
    </contour>
    <contour>
      <point x="718" y="310" type="curve" smooth="yes"/>
      <point x="604" y="310"/>
      <point x="518" y="390"/>
      <point x="518" y="520" type="curve" smooth="yes"/>
      <point x="518" y="650"/>
      <point x="606" y="730"/>
      <point x="718" y="730" type="curve" smooth="yes"/>
      <point x="830" y="730"/>
      <point x="918" y="650"/>
      <point x="918" y="520" type="curve" smooth="yes"/>
      <point x="918" y="390"/>
      <point x="832" y="310"/>
    </contour>
  </outline>
</glyph>
<glyph name="sigmafinal" format="2">
  <advance width="1117"/>
  <unicode hex="03C2"/>
  <outline>
    <contour>
      <point x="956" y="-450" type="line"/>
      <point x="1032" y="-306"/>
      <point x="1064" y="-190"/>
      <point x="1064" y="-98" type="curve" smooth="yes"/>
      <point x="1064" y="80"/>
      <point x="928" y="172"/>
      <point x="714" y="264" type="curve" smooth="yes"/>
      <point x="506" y="354"/>
      <point x="438" y="402"/>
      <point x="438" y="522" type="curve" smooth="yes"/>
      <point x="438" y="630"/>
      <point x="506" y="716"/>
      <point x="650" y="716" type="curve" smooth="yes"/>
      <point x="738" y="716"/>
      <point x="856" y="690"/>
      <point x="958" y="598" type="curve"/>
      <point x="1080" y="932" type="line"/>
      <point x="946" y="1022"/>
      <point x="794" y="1070"/>
      <point x="634" y="1070" type="curve" smooth="yes"/>
      <point x="298" y="1070"/>
      <point x="50" y="830"/>
      <point x="50" y="518" type="curve" smooth="yes"/>
      <point x="50" y="232"/>
      <point x="230" y="82"/>
      <point x="419" y="6" type="curve" smooth="yes"/>
      <point x="592" y="-64"/>
      <point x="674" y="-106"/>
      <point x="674" y="-194" type="curve" smooth="yes"/>
      <point x="674" y="-244"/>
      <point x="652" y="-314"/>
      <point x="602" y="-406" type="curve"/>
    </contour>
  </outline>
</glyph>
<glyph name="sigma" format="2">
  <advance width="1376"/>
  <unicode hex="03C3"/>
  <outline>
    <contour>
      <point x="638" y="-30" type="curve" smooth="yes"/>
      <point x="988" y="-30"/>
      <point x="1206" y="168"/>
      <point x="1206" y="432" type="curve" smooth="yes"/>
      <point x="1206" y="532"/>
      <point x="1174" y="634"/>
      <point x="1102" y="716" type="curve"/>
      <point x="1354" y="716" type="line"/>
      <point x="1354" y="1040" type="line"/>
      <point x="708" y="1040" type="line" smooth="yes"/>
      <point x="244" y="1040"/>
      <point x="50" y="800"/>
      <point x="50" y="502" type="curve" smooth="yes"/>
      <point x="50" y="178"/>
      <point x="304" y="-30"/>
    </contour>
    <contour>
      <point x="638" y="310" type="curve" smooth="yes"/>
      <point x="522" y="310"/>
      <point x="438" y="390"/>
      <point x="438" y="510" type="curve" smooth="yes"/>
      <point x="438" y="630"/>
      <point x="522" y="710"/>
      <point x="638" y="710" type="curve" smooth="yes"/>
      <point x="754" y="710"/>
      <point x="838" y="630"/>
      <point x="838" y="510" type="curve" smooth="yes"/>
      <point x="838" y="390"/>
      <point x="754" y="310"/>
    </contour>
  </outline>
</glyph>
<glyph name="upsilon" format="2">
  <advance width="1313"/>
  <unicode hex="03C5"/>
  <anchor x="624" y="1040" name="top"/>
  <outline>
    <contour>
      <point x="656" y="-30" type="curve" smooth="yes"/>
      <point x="1009" y="-28"/>
      <point x="1208" y="161"/>
      <point x="1208" y="526" type="curve" smooth="yes"/>
      <point x="1208" y="715"/>
      <point x="1148" y="917"/>
      <point x="1045" y="1060" type="curve"/>
      <point x="701" y="940" type="line"/>
      <point x="774" y="832"/>
      <point x="814" y="696"/>
      <point x="814" y="555" type="curve" smooth="yes"/>
      <point x="814" y="399"/>
      <point x="757" y="310"/>
      <point x="658" y="310" type="curve" smooth="yes"/>
      <point x="568" y="310"/>
      <point x="520" y="370"/>
      <point x="520" y="474" type="curve" smooth="yes"/>
      <point x="520" y="1040" type="line"/>
      <point x="120" y="1040" type="line"/>
      <point x="120" y="468" type="line" smooth="yes"/>
      <point x="120" y="182"/>
      <point x="262" y="-30"/>
    </contour>
  </outline>
</glyph>
<glyph name="phi" format="2">
  <advance width="1644"/>
  <unicode hex="03C6"/>
  <outline>
    <contour>
      <point x="617" y="-421" type="line"/>
      <point x="1005" y="-420" type="line"/>
      <point x="1005" y="600" type="line" smooth="yes"/>
      <point x="1005" y="684"/>
      <point x="1036" y="730"/>
      <point x="1093" y="730" type="curve" smooth="yes"/>
      <point x="1161" y="730"/>
      <point x="1193" y="679"/>
      <point x="1193" y="582" type="curve" smooth="yes"/>
      <point x="1193" y="359"/>
      <point x="1057" y="260"/>
      <point x="819" y="260" type="curve" smooth="yes"/>
      <point x="572" y="260"/>
      <point x="443" y="345"/>
      <point x="443" y="585" type="curve" smooth="yes"/>
      <point x="443" y="711"/>
      <point x="486" y="837"/>
      <point x="576" y="940" type="curve"/>
      <point x="258" y="1060" type="line"/>
      <point x="137" y="932"/>
      <point x="65" y="748"/>
      <point x="65" y="546" type="curve" smooth="yes"/>
      <point x="65" y="176"/>
      <point x="314" y="-49"/>
      <point x="809" y="-49" type="curve" smooth="yes"/>
      <point x="1286" y="-49"/>
      <point x="1579" y="180"/>
      <point x="1579" y="592" type="curve" smooth="yes"/>
      <point x="1579" y="883"/>
      <point x="1414" y="1070"/>
      <point x="1107" y="1070" type="curve" smooth="yes"/>
      <point x="794" y="1070"/>
      <point x="617" y="846"/>
      <point x="617" y="514" type="curve" smooth="yes"/>
    </contour>
  </outline>
</glyph>
<glyph name="chi" format="2">
  <advance width="1300"/>
  <unicode hex="03C7"/>
  <outline>
    <contour>
      <point x="42" y="-420" type="line"/>
      <point x="494" y="-420" type="line"/>
      <point x="718" y="154" type="line"/>
      <point x="594" y="154" type="line"/>
      <point x="830" y="-420" type="line"/>
      <point x="1290" y="-420" type="line"/>
      <point x="854" y="474" type="line"/>
      <point x="838" y="150" type="line"/>
      <point x="1270" y="1040" type="line"/>
      <point x="824" y="1040" type="line"/>
      <point x="594" y="492" type="line"/>
      <point x="734" y="456" type="line"/>
      <point x="570" y="880" type="line" smooth="yes"/>
      <point x="498" y="1066"/>
      <point x="302" y="1126"/>
      <point x="10" y="1042" type="curve"/>
      <point x="62" y="706" type="line"/>
      <point x="176" y="750"/>
      <point x="224" y="716"/>
      <point x="274" y="610" type="curve" smooth="yes"/>
      <point x="486" y="164" type="line"/>
      <point x="478" y="466" type="line"/>
    </contour>
  </outline>
</glyph>
<glyph name="psi" format="2">
  <advance width="1724"/>
  <unicode hex="03C8"/>
  <outline>
    <contour>
      <point x="664" y="-420" type="line"/>
      <point x="1064" y="-420" type="line"/>
      <point x="1064" y="-30" type="line"/>
      <point x="1432" y="-28"/>
      <point x="1639" y="161"/>
      <point x="1639" y="526" type="curve" smooth="yes"/>
      <point x="1639" y="715"/>
      <point x="1579" y="917"/>
      <point x="1476" y="1060" type="curve"/>
      <point x="1132" y="940" type="line"/>
      <point x="1205" y="832"/>
      <point x="1245" y="696"/>
      <point x="1245" y="555" type="curve" smooth="yes"/>
      <point x="1245" y="399"/>
      <point x="1176" y="310"/>
      <point x="1056" y="310" type="curve"/>
      <point x="1056" y="1280" type="line"/>
      <point x="672" y="1280" type="line"/>
      <point x="672" y="310" type="line"/>
      <point x="568" y="310"/>
      <point x="504" y="358"/>
      <point x="504" y="550" type="curve" smooth="yes"/>
      <point x="504" y="1040" type="line"/>
      <point x="118" y="1040" type="line"/>
      <point x="118" y="544" type="line" smooth="yes"/>
      <point x="118" y="166"/>
      <point x="262" y="-30"/>
      <point x="664" y="-30" type="curve"/>
    </contour>
  </outline>
</glyph>
<glyph name="omega" format="2">
  <advance width="1758"/>
  <unicode hex="03C9"/>
  <anchor x="879" y="0" name="bottom"/>
  <anchor x="879" y="1040" name="top"/>
  <outline>
    <contour>
      <point x="533" y="-30" type="curve" smooth="yes"/>
      <point x="667" y="-31"/>
      <point x="791" y="30"/>
      <point x="879" y="136" type="curve"/>
      <point x="967" y="30"/>
      <point x="1091" y="-31"/>
      <point x="1225" y="-30" type="curve" smooth="yes"/>
      <point x="1499" y="-28"/>
      <point x="1653" y="161"/>
      <point x="1653" y="526" type="curve" smooth="yes"/>
      <point x="1653" y="715"/>
      <point x="1593" y="917"/>
      <point x="1490" y="1060" type="curve"/>
      <point x="1146" y="940" type="line"/>
      <point x="1219" y="832"/>
      <point x="1259" y="696"/>
      <point x="1259" y="555" type="curve" smooth="yes"/>
      <point x="1259" y="412"/>
      <point x="1219" y="330"/>
      <point x="1149" y="330" type="curve" smooth="yes"/>
      <point x="1081" y="330"/>
      <point x="1053" y="366"/>
      <point x="1053" y="500" type="curve" smooth="yes"/>
      <point x="1053" y="820" type="line"/>
      <point x="705" y="820" type="line"/>
      <point x="705" y="500" type="line" smooth="yes"/>
      <point x="705" y="366"/>
      <point x="677" y="330"/>
      <point x="609" y="330" type="curve" smooth="yes"/>
      <point x="539" y="330"/>
      <point x="499" y="412"/>
      <point x="499" y="555" type="curve" smooth="yes"/>
      <point x="499" y="696"/>
      <point x="539" y="832"/>
      <point x="612" y="940" type="curve"/>
      <point x="268" y="1060" type="line"/>
      <point x="165" y="917"/>
      <point x="105" y="715"/>
      <point x="105" y="526" type="curve" smooth="yes"/>
      <point x="105" y="161"/>
      <point x="259" y="-28"/>
    </contour>
  </outline>
</glyph>
<glyph name="KaiSymbol" format="2">
  <advance width="1522"/>
  <unicode hex="03CF"/>
  <outline>
    <contour>
      <point x="782" y="-420" type="line"/>
      <point x="1262" y="-420" type="line"/>
      <point x="1532" y="0" type="line"/>
      <point x="950" y="750" type="line"/>
      <point x="1472" y="1400" type="line"/>
      <point x="966" y="1400" type="line"/>
      <point x="560" y="882" type="line"/>
      <point x="560" y="1400" type="line"/>
      <point x="156" y="1400" type="line"/>
      <point x="156" y="0" type="line"/>
      <point x="560" y="0" type="line"/>
      <point x="560" y="312" type="line"/>
      <point x="684" y="446" type="line"/>
      <point x="1036" y="-32" type="line"/>
    </contour>
  </outline>
</glyph>
<glyph name="Dje-cy" format="2">
  <advance width="1678"/>
  <unicode hex="0402"/>
  <outline>
    <contour>
      <point x="390" y="0" type="line"/>
      <point x="796" y="0" type="line"/>
      <point x="796" y="1040" type="line"/>
      <point x="1352" y="1040" type="line"/>
      <point x="1352" y="1400" type="line"/>
      <point x="30" y="1400" type="line"/>
      <point x="30" y="1040" type="line"/>
      <point x="390" y="1040" type="line"/>
    </contour>
    <contour>
      <point x="1210" y="-334" type="line"/>
      <point x="1492" y="-188"/>
      <point x="1628" y="88"/>
      <point x="1628" y="350" type="curve" smooth="yes"/>
      <point x="1628" y="654"/>
      <point x="1416" y="900"/>
      <point x="1028" y="900" type="curve" smooth="yes"/>
      <point x="930" y="900"/>
      <point x="828" y="888"/>
      <point x="722" y="856" type="curve"/>
      <point x="726" y="532" type="line"/>
      <point x="800" y="556"/>
      <point x="858" y="568"/>
      <point x="938" y="568" type="curve" smooth="yes"/>
      <point x="1108" y="568"/>
      <point x="1220" y="454"/>
      <point x="1220" y="318" type="curve" smooth="yes"/>
      <point x="1220" y="184"/>
      <point x="1152" y="52"/>
      <point x="1010" y="-32" type="curve"/>
    </contour>
  </outline>
</glyph>
<glyph name="Lje-cy" format="2">
  <advance width="2154"/>
  <unicode hex="0409"/>
  <outline>
    <contour>
      <point x="154" y="-30" type="line"/>
      <point x="576" y="54"/>
      <point x="676" y="302"/>
      <point x="676" y="1012" type="curve" smooth="yes"/>
      <point x="676" y="1032" type="line"/>
      <point x="958" y="1032" type="line"/>
      <point x="1362" y="1400" type="line"/>
      <point x="296" y="1400" type="line"/>
      <point x="296" y="992" type="line" smooth="yes"/>
      <point x="296" y="468"/>
      <point x="256" y="407"/>
      <point x="29" y="339" type="curve"/>
    </contour>
    <contour>
      <point x="1362" y="294" type="line"/>
      <point x="1362" y="564" type="line"/>
      <point x="1532" y="564" type="line" smooth="yes"/>
      <point x="1636" y="564"/>
      <point x="1710" y="532"/>
      <point x="1710" y="428" type="curve" smooth="yes"/>
      <point x="1710" y="328"/>
      <point x="1642" y="294"/>
      <point x="1530" y="294" type="curve" smooth="yes"/>
    </contour>
    <contour>
      <point x="958" y="0" type="line"/>
      <point x="1546" y="0" type="line" smooth="yes"/>
      <point x="1906" y="0"/>
      <point x="2114" y="168"/>
      <point x="2114" y="464" type="curve" smooth="yes"/>
      <point x="2114" y="744"/>
      <point x="1876" y="908"/>
      <point x="1556" y="908" type="curve" smooth="yes"/>
      <point x="1362" y="908" type="line"/>
      <point x="1362" y="1400" type="line"/>
      <point x="958" y="1400" type="line"/>
    </contour>
  </outline>
</glyph>
<glyph name="Nje-cy" format="2">
  <advance width="2214"/>
  <unicode hex="040A"/>
  <outline>
    <contour>
      <point x="988" y="0" type="line"/>
      <point x="1576" y="0" type="line" smooth="yes"/>
      <point x="1936" y="0"/>
      <point x="2144" y="168"/>
      <point x="2144" y="464" type="curve" smooth="yes"/>
      <point x="2144" y="744"/>
      <point x="1906" y="908"/>
      <point x="1586" y="908" type="curve" smooth="yes"/>
      <point x="472" y="908" type="line"/>
      <point x="472" y="564" type="line"/>
      <point x="1562" y="564" type="line" smooth="yes"/>
      <point x="1666" y="564"/>
      <point x="1740" y="532"/>
      <point x="1740" y="428" type="curve" smooth="yes"/>
      <point x="1740" y="328"/>
      <point x="1672" y="294"/>
      <point x="1560" y="294" type="curve" smooth="yes"/>
      <point x="1392" y="294" type="line"/>
      <point x="1392" y="1400" type="line"/>
      <point x="988" y="1400" type="line"/>
    </contour>
    <contour>
      <point x="156" y="0" type="line"/>
      <point x="560" y="0" type="line"/>
      <point x="560" y="1400" type="line"/>
      <point x="156" y="1400" type="line"/>
    </contour>
  </outline>
</glyph>
<glyph name="De-cy" format="2">
  <advance width="1717"/>
  <unicode hex="0414"/>
  <outline>
    <contour>
      <point x="1037" y="0" type="line"/>
      <point x="1441" y="0" type="line"/>
      <point x="1441" y="1400" type="line"/>
      <point x="311" y="1400" type="line"/>
      <point x="311" y="1012" type="line" smooth="yes"/>
      <point x="311" y="520"/>
      <point x="259" y="396"/>
      <point x="33" y="346" type="curve"/>
      <point x="169" y="2" type="line"/>
      <point x="561" y="92"/>
      <point x="691" y="396"/>
      <point x="691" y="1012" type="curve" smooth="yes"/>
      <point x="691" y="1032" type="line"/>
      <point x="1037" y="1032" type="line"/>
    </contour>
    <contour>
      <point x="33" y="-350" type="line"/>
      <point x="417" y="-350" type="line"/>
      <point x="417" y="0" type="line"/>
      <point x="1285" y="0" type="line"/>
      <point x="1285" y="-350" type="line"/>
      <point x="1669" y="-350" type="line"/>
      <point x="1669" y="368" type="line"/>
      <point x="361" y="368" type="line"/>
      <point x="243" y="340" type="line"/>
      <point x="33" y="346" type="line"/>
    </contour>
  </outline>
</glyph>
<glyph name="Zhe-cy" format="2">
  <advance width="2134"/>
  <unicode hex="0416"/>
  <anchor x="2000" y="0" name="descender"/>
  <anchor x="1066" y="1400" name="top"/>
  <outline>
    <contour>
      <point x="1678" y="0" type="line"/>
      <point x="2144" y="0" type="line"/>
      <point x="1620" y="720" type="line"/>
      <point x="2090" y="1400" type="line"/>
      <point x="1634" y="1400" type="line"/>
      <point x="1176" y="720" type="line"/>
    </contour>
    <contour>
      <point x="-10" y="0" type="line"/>
      <point x="438" y="0" type="line"/>
      <point x="954" y="714" type="line"/>
      <point x="520" y="1400" type="line"/>
      <point x="50" y="1400" type="line"/>
      <point x="510" y="696" type="line"/>
    </contour>
    <contour>
      <point x="864" y="0" type="line"/>
      <point x="1268" y="0" type="line"/>
      <point x="1268" y="560" type="line"/>
      <point x="1510" y="560" type="line"/>
      <point x="1510" y="892" type="line"/>
      <point x="1268" y="892" type="line"/>
      <point x="1268" y="1400" type="line"/>
      <point x="864" y="1400" type="line"/>
      <point x="864" y="892" type="line"/>
      <point x="624" y="892" type="line"/>
      <point x="624" y="560" type="line"/>
      <point x="864" y="560" type="line"/>
    </contour>
  </outline>
</glyph>
<glyph name="El-cy" format="2">
  <advance width="1608"/>
  <unicode hex="041B"/>
  <outline>
    <contour>
      <point x="184" y="-30" type="line"/>
      <point x="606" y="54"/>
      <point x="706" y="302"/>
      <point x="706" y="1012" type="curve" smooth="yes"/>
      <point x="706" y="1032" type="line"/>
      <point x="1048" y="1032" type="line"/>
      <point x="1048" y="0" type="line"/>
      <point x="1452" y="0" type="line"/>
      <point x="1452" y="1400" type="line"/>
      <point x="326" y="1400" type="line"/>
      <point x="326" y="992" type="line" smooth="yes"/>
      <point x="326" y="468"/>
      <point x="286" y="407"/>
      <point x="59" y="339" type="curve"/>
    </contour>
  </outline>
</glyph>
<glyph name="U-cy" format="2">
  <advance width="1372"/>
  <unicode hex="0423"/>
  <anchor x="712" y="1400" name="top"/>
  <outline>
    <contour>
      <point x="202" y="-30" type="line"/>
      <point x="544" y="-2"/>
      <point x="738" y="156"/>
      <point x="968" y="592" type="curve" smooth="yes"/>
      <point x="1390" y="1400" type="line"/>
      <point x="922" y="1400" type="line"/>
      <point x="638" y="786" type="line" smooth="yes"/>
      <point x="504" y="498"/>
      <point x="356" y="382"/>
      <point x="66" y="336" type="curve"/>
    </contour>
    <contour>
      <point x="558" y="374" type="line"/>
      <point x="832" y="708" type="line"/>
      <point x="502" y="1400" type="line"/>
      <point x="14" y="1400" type="line"/>
    </contour>
  </outline>
</glyph>
<glyph name="Sha-cy" format="2">
  <advance width="2288"/>
  <unicode hex="0428"/>
  <anchor x="2132" y="0" name="descender"/>
  <outline>
    <contour>
      <point x="156" y="0" type="line"/>
      <point x="2132" y="0" type="line"/>
      <point x="2132" y="1400" type="line"/>
      <point x="1728" y="1400" type="line"/>
      <point x="1728" y="368" type="line"/>
      <point x="1346" y="368" type="line"/>
      <point x="1346" y="1400" type="line"/>
      <point x="942" y="1400" type="line"/>
      <point x="942" y="368" type="line"/>
      <point x="560" y="368" type="line"/>
      <point x="560" y="1400" type="line"/>
      <point x="156" y="1400" type="line"/>
    </contour>
  </outline>
</glyph>
<glyph name="Softsign-cy" format="2">
  <advance width="1352"/>
  <unicode hex="042C"/>
  <guideline x="179" y="700" angle="90"/>
  <anchor x="358" y="1170" name="bar"/>
  <outline>
    <contour>
      <point x="156" y="0" type="line"/>
      <point x="744" y="0" type="line" smooth="yes"/>
      <point x="1104" y="0"/>
      <point x="1312" y="176"/>
      <point x="1312" y="484" type="curve" smooth="yes"/>
      <point x="1312" y="790"/>
      <point x="1074" y="968"/>
      <point x="754" y="968" type="curve" smooth="yes"/>
      <point x="560" y="968" type="line"/>
      <point x="560" y="1400" type="line"/>
      <point x="156" y="1400" type="line"/>
    </contour>
    <contour>
      <point x="560" y="334" type="line"/>
      <point x="560" y="624" type="line"/>
      <point x="730" y="624" type="line" smooth="yes"/>
      <point x="834" y="624"/>
      <point x="908" y="590"/>
      <point x="908" y="478" type="curve" smooth="yes"/>
      <point x="908" y="370"/>
      <point x="840" y="334"/>
      <point x="728" y="334" type="curve" smooth="yes"/>
    </contour>
  </outline>
</glyph>
<glyph name="Ia-cy" format="2">
  <advance width="1410"/>
  <unicode hex="042F"/>
  <anchor x="742" y="1400" name="top"/>
  <outline>
    <contour>
      <point x="34" y="0" type="line"/>
      <point x="492" y="0" type="line"/>
      <point x="764" y="482" type="line"/>
      <point x="850" y="482" type="line"/>
      <point x="850" y="0" type="line"/>
      <point x="1254" y="0" type="line"/>
      <point x="1254" y="1400" type="line"/>
      <point x="680" y="1400" type="line" smooth="yes"/>
      <point x="340" y="1400"/>
      <point x="116" y="1252"/>
      <point x="116" y="934" type="curve" smooth="yes"/>
      <point x="116" y="762"/>
      <point x="214" y="630"/>
      <point x="376" y="552" type="curve"/>
    </contour>
    <contour>
      <point x="702" y="800" type="line" smooth="yes"/>
      <point x="592" y="800"/>
      <point x="524" y="834"/>
      <point x="524" y="936" type="curve" smooth="yes"/>
      <point x="524" y="1038"/>
      <point x="592" y="1072"/>
      <point x="700" y="1072" type="curve" smooth="yes"/>
      <point x="850" y="1072" type="line"/>
      <point x="850" y="800" type="line"/>
    </contour>
  </outline>
</glyph>
<glyph name="ge-cy" format="2">
  <advance width="902"/>
  <unicode hex="0433"/>
  <anchor x="348" y="462" name="bar"/>
  <anchor x="528" y="0" name="descender"/>
  <anchor x="494" y="1040" name="top"/>
  <outline>
    <contour>
      <point x="128" y="0" type="line"/>
      <point x="528" y="0" type="line"/>
      <point x="528" y="728" type="line"/>
      <point x="862" y="728" type="line"/>
      <point x="862" y="1040" type="line"/>
      <point x="128" y="1040" type="line"/>
    </contour>
  </outline>
</glyph>
<glyph name="de-cy" format="2">
  <advance width="1488"/>
  <unicode hex="0434"/>
  <outline>
    <contour>
      <point x="858" y="0" type="line"/>
      <point x="1258" y="0" type="line"/>
      <point x="1258" y="1040" type="line"/>
      <point x="266" y="1040" type="line"/>
      <point x="266" y="698" type="line" smooth="yes"/>
      <point x="266" y="542"/>
      <point x="230" y="336"/>
      <point x="58" y="302" type="curve"/>
      <point x="126" y="20" type="line"/>
      <point x="520" y="92"/>
      <point x="626" y="418"/>
      <point x="626" y="698" type="curve" smooth="yes"/>
      <point x="626" y="728" type="line"/>
      <point x="858" y="728" type="line"/>
    </contour>
    <contour>
      <point x="58" y="-300" type="line"/>
      <point x="422" y="-300" type="line"/>
      <point x="422" y="0" type="line"/>
      <point x="1100" y="0" type="line"/>
      <point x="1100" y="-300" type="line"/>
      <point x="1464" y="-300" type="line"/>
      <point x="1464" y="312" type="line"/>
      <point x="316" y="312" type="line"/>
      <point x="252" y="290" type="line"/>
      <point x="58" y="302" type="line"/>
    </contour>
  </outline>
</glyph>
<glyph name="ze-cy" format="2">
  <advance width="1095"/>
  <unicode hex="0437"/>
  <anchor x="537" y="0" name="bottom"/>
  <anchor x="517" y="1040" name="top"/>
  <outline>
    <contour>
      <point x="511" y="-30" type="curve" smooth="yes"/>
      <point x="835" y="-30"/>
      <point x="1025" y="118"/>
      <point x="1025" y="326" type="curve" smooth="yes"/>
      <point x="1025" y="456"/>
      <point x="955" y="534"/>
      <point x="821" y="576" type="curve"/>
      <point x="925" y="606"/>
      <point x="979" y="696"/>
      <point x="979" y="784" type="curve" smooth="yes"/>
      <point x="979" y="968"/>
      <point x="811" y="1076"/>
      <point x="511" y="1076" type="curve" smooth="yes"/>
      <point x="359" y="1076"/>
      <point x="187" y="1036"/>
      <point x="57" y="938" type="curve"/>
      <point x="187" y="684" type="line"/>
      <point x="257" y="752"/>
      <point x="363" y="784"/>
      <point x="473" y="784" type="curve" smooth="yes"/>
      <point x="571" y="784"/>
      <point x="629" y="766"/>
      <point x="629" y="722" type="curve" smooth="yes"/>
      <point x="629" y="680"/>
      <point x="595" y="662"/>
      <point x="489" y="662" type="curve" smooth="yes"/>
      <point x="311" y="662" type="line"/>
      <point x="311" y="394" type="line"/>
      <point x="501" y="394" type="line" smooth="yes"/>
      <point x="613" y="394"/>
      <point x="663" y="384"/>
      <point x="663" y="334" type="curve" smooth="yes"/>
      <point x="663" y="277"/>
      <point x="603" y="252"/>
      <point x="493" y="252" type="curve" smooth="yes"/>
      <point x="371" y="252"/>
      <point x="255" y="286"/>
      <point x="183" y="354" type="curve"/>
      <point x="37" y="110" type="line"/>
      <point x="155" y="10"/>
      <point x="333" y="-30"/>
    </contour>
  </outline>
</glyph>
<glyph name="el-cy" format="2">
  <advance width="1356"/>
  <unicode hex="043B"/>
  <outline>
    <contour>
      <point x="162" y="-30" type="line"/>
      <point x="544" y="44"/>
      <point x="616" y="270"/>
      <point x="616" y="698" type="curve" smooth="yes"/>
      <point x="616" y="728" type="line"/>
      <point x="828" y="728" type="line"/>
      <point x="828" y="0" type="line"/>
      <point x="1228" y="0" type="line"/>
      <point x="1228" y="1040" type="line"/>
      <point x="256" y="1040" type="line"/>
      <point x="256" y="698" type="line" smooth="yes"/>
      <point x="256" y="478"/>
      <point x="242" y="372"/>
      <point x="36" y="320" type="curve"/>
    </contour>
  </outline>
</glyph>
<glyph name="em-cy" format="2">
  <advance width="1534"/>
  <unicode hex="043C"/>
  <outline>
    <contour>
      <point x="128" y="0" type="line"/>
      <point x="454" y="0" type="line"/>
      <point x="446" y="614" type="line"/>
      <point x="368" y="584" type="line"/>
      <point x="654" y="156" type="line"/>
      <point x="880" y="156" type="line"/>
      <point x="1144" y="584" type="line"/>
      <point x="1066" y="614" type="line"/>
      <point x="1060" y="0" type="line"/>
      <point x="1406" y="0" type="line"/>
      <point x="1406" y="1040" type="line"/>
      <point x="1060" y="1040" type="line"/>
      <point x="696" y="416" type="line"/>
      <point x="866" y="418" type="line"/>
      <point x="472" y="1040" type="line"/>
      <point x="466" y="1040" type="line"/>
      <point x="128" y="1040" type="line"/>
    </contour>
  </outline>
</glyph>
<glyph name="pe-cy" format="2">
  <advance width="1376"/>
  <unicode hex="043F"/>
  <anchor x="688" y="1040" name="top"/>
  <outline>
    <contour>
      <point x="128" y="0" type="line"/>
      <point x="528" y="0" type="line"/>
      <point x="528" y="728" type="line"/>
      <point x="848" y="728" type="line"/>
      <point x="848" y="0" type="line"/>
      <point x="1248" y="0" type="line"/>
      <point x="1248" y="1040" type="line"/>
      <point x="128" y="1040" type="line"/>
    </contour>
  </outline>
</glyph>
<glyph name="te-cy" format="2">
  <advance width="1036"/>
  <unicode hex="0442"/>
  <anchor x="520" y="452" name="bar"/>
  <anchor x="518" y="0" name="bottom"/>
  <anchor x="518" y="1040" name="top"/>
  <outline>
    <contour>
      <point x="318" y="0" type="line"/>
      <point x="718" y="0" type="line"/>
      <point x="718" y="728" type="line"/>
      <point x="990" y="728" type="line"/>
      <point x="990" y="1040" type="line"/>
      <point x="46" y="1040" type="line"/>
      <point x="46" y="728" type="line"/>
      <point x="318" y="728" type="line"/>
    </contour>
  </outline>
</glyph>
<glyph name="ef-cy" format="2">
  <advance width="1664"/>
  <unicode hex="0444"/>
  <outline>
    <contour>
      <point x="630" y="-420" type="line"/>
      <point x="1030" y="-420" type="line"/>
      <point x="1030" y="1440" type="line"/>
      <point x="630" y="1440" type="line"/>
    </contour>
    <contour>
      <point x="824" y="-26" type="curve" smooth="yes"/>
      <point x="1332" y="-26"/>
      <point x="1614" y="174"/>
      <point x="1614" y="520" type="curve" smooth="yes"/>
      <point x="1614" y="866"/>
      <point x="1352" y="1066"/>
      <point x="838" y="1066" type="curve" smooth="yes"/>
      <point x="324" y="1066"/>
      <point x="50" y="862"/>
      <point x="50" y="520" type="curve" smooth="yes"/>
      <point x="50" y="178"/>
      <point x="316" y="-26"/>
    </contour>
    <contour>
      <point x="832" y="290" type="curve" smooth="yes"/>
      <point x="524" y="290"/>
      <point x="436" y="366"/>
      <point x="436" y="520" type="curve" smooth="yes"/>
      <point x="436" y="674"/>
      <point x="522" y="750"/>
      <point x="830" y="750" type="curve" smooth="yes"/>
      <point x="1138" y="750"/>
      <point x="1226" y="674"/>
      <point x="1226" y="520" type="curve" smooth="yes"/>
      <point x="1226" y="366"/>
      <point x="1140" y="290"/>
    </contour>
  </outline>
</glyph>
<glyph name="che-cy" format="2">
  <advance width="1252"/>
  <unicode hex="0447"/>
  <anchor x="590" y="486" name="center"/>
  <anchor x="1124" y="0" name="descender"/>
  <anchor x="724" y="0" name="descender_alt"/>
  <anchor x="590" y="1040" name="top"/>
  <outline>
    <contour>
      <point x="724" y="0" type="line"/>
      <point x="1124" y="0" type="line"/>
      <point x="1124" y="1040" type="line"/>
      <point x="724" y="1040" type="line"/>
      <point x="724" y="638" type="line"/>
      <point x="686" y="632"/>
      <point x="650" y="626"/>
      <point x="590" y="626" type="curve" smooth="yes"/>
      <point x="494" y="626"/>
      <point x="458" y="680"/>
      <point x="458" y="782" type="curve" smooth="yes"/>
      <point x="458" y="1040" type="line"/>
      <point x="58" y="1040" type="line"/>
      <point x="58" y="730" type="line" smooth="yes"/>
      <point x="58" y="422"/>
      <point x="248" y="302"/>
      <point x="500" y="302" type="curve" smooth="yes"/>
      <point x="570" y="302"/>
      <point x="640" y="314"/>
      <point x="724" y="336" type="curve"/>
    </contour>
  </outline>
</glyph>
<glyph name="sha-cy" format="2">
  <advance width="1908"/>
  <unicode hex="0448"/>
  <anchor x="1780" y="0" name="descender"/>
  <outline>
    <contour>
      <point x="128" y="0" type="line"/>
      <point x="1780" y="0" type="line"/>
      <point x="1780" y="1040" type="line"/>
      <point x="1400" y="1040" type="line"/>
      <point x="1400" y="312" type="line"/>
      <point x="1144" y="312" type="line"/>
      <point x="1144" y="1040" type="line"/>
      <point x="764" y="1040" type="line"/>
      <point x="764" y="312" type="line"/>
      <point x="508" y="312" type="line"/>
      <point x="508" y="1040" type="line"/>
      <point x="128" y="1040" type="line"/>
    </contour>
  </outline>
</glyph>
<glyph name="ereversed-cy" format="2">
  <advance width="1119"/>
  <unicode hex="044D"/>
  <anchor x="507" y="0" name="bottom"/>
  <anchor x="507" y="1040" name="top"/>
  <outline>
    <contour>
      <point x="491" y="-30" type="curve" smooth="yes"/>
      <point x="829" y="-30"/>
      <point x="1069" y="194"/>
      <point x="1069" y="524" type="curve" smooth="yes"/>
      <point x="1069" y="854"/>
      <point x="835" y="1070"/>
      <point x="507" y="1070" type="curve" smooth="yes"/>
      <point x="331" y="1070"/>
      <point x="169" y="1016"/>
      <point x="57" y="932" type="curve"/>
      <point x="187" y="678" type="line"/>
      <point x="253" y="736"/>
      <point x="347" y="778"/>
      <point x="455" y="778" type="curve" smooth="yes"/>
      <point x="615" y="778"/>
      <point x="715" y="712"/>
      <point x="715" y="524" type="curve" smooth="yes"/>
      <point x="715" y="324"/>
      <point x="619" y="262"/>
      <point x="453" y="262" type="curve" smooth="yes"/>
      <point x="357" y="262"/>
      <point x="255" y="296"/>
      <point x="183" y="364" type="curve"/>
      <point x="37" y="110" type="line"/>
      <point x="137" y="22"/>
      <point x="311" y="-30"/>
    </contour>
    <contour>
      <point x="311" y="396" type="line"/>
      <point x="839" y="396" type="line"/>
      <point x="839" y="664" type="line"/>
      <point x="311" y="664" type="line"/>
    </contour>
  </outline>
</glyph>
<glyph name="iu-cy" format="2">
  <advance width="1886"/>
  <unicode hex="044E"/>
  <guideline x="491" y="390" angle="163.0671"/>
  <anchor x="982" y="1040" name="top"/>
  <outline>
    <contour>
      <point x="128" y="0" type="line"/>
      <point x="528" y="0" type="line"/>
      <point x="528" y="370" type="line"/>
      <point x="848" y="370" type="line"/>
      <point x="848" y="682" type="line"/>
      <point x="528" y="682" type="line"/>
      <point x="528" y="1040" type="line"/>
      <point x="128" y="1040" type="line"/>
    </contour>
    <contour>
      <point x="1248" y="-30" type="curve" smooth="yes"/>
      <point x="1596" y="-30"/>
      <point x="1836" y="232"/>
      <point x="1836" y="520" type="curve" smooth="yes"/>
      <point x="1836" y="820"/>
      <point x="1596" y="1070"/>
      <point x="1248" y="1070" type="curve" smooth="yes"/>
      <point x="900" y="1070"/>
      <point x="660" y="808"/>
      <point x="660" y="520" type="curve" smooth="yes"/>
      <point x="660" y="220"/>
      <point x="900" y="-30"/>
    </contour>
    <contour>
      <point x="1248" y="310" type="curve" smooth="yes"/>
      <point x="1136" y="310"/>
      <point x="1048" y="390"/>
      <point x="1048" y="520" type="curve" smooth="yes"/>
      <point x="1048" y="650"/>
      <point x="1134" y="730"/>
      <point x="1248" y="730" type="curve" smooth="yes"/>
      <point x="1362" y="730"/>
      <point x="1448" y="650"/>
      <point x="1448" y="520" type="curve" smooth="yes"/>
      <point x="1448" y="390"/>
      <point x="1360" y="310"/>
    </contour>
  </outline>
</glyph>
<glyph name="ia-cy" format="2">
  <advance width="1194"/>
  <unicode hex="044F"/>
  <guideline x="75" y="80" angle="62.8649"/>
  <anchor x="620" y="1040" name="top"/>
  <outline>
    <contour>
      <point x="44" y="0" type="line"/>
      <point x="472" y="0" type="line"/>
      <point x="642" y="320" type="line"/>
      <point x="720" y="320" type="line"/>
      <point x="720" y="578" type="line"/>
      <point x="560" y="578" type="line" smooth="yes"/>
      <point x="502" y="578"/>
      <point x="464" y="618"/>
      <point x="464" y="674" type="curve" smooth="yes"/>
      <point x="464" y="732"/>
      <point x="508" y="768"/>
      <point x="576" y="768" type="curve" smooth="yes"/>
      <point x="688" y="768" type="line"/>
      <point x="688" y="0" type="line"/>
      <point x="1066" y="0" type="line"/>
      <point x="1066" y="1040" type="line"/>
      <point x="526" y="1040" type="line" smooth="yes"/>
      <point x="246" y="1040"/>
      <point x="76" y="896"/>
      <point x="76" y="660" type="curve" smooth="yes"/>
      <point x="76" y="446"/>
      <point x="266" y="326"/>
      <point x="492" y="326" type="curve"/>
      <point x="378" y="564" type="line"/>
    </contour>
  </outline>
</glyph>
<glyph name="e-cy" format="2">
  <advance width="1127"/>
  <unicode hex="0454"/>
  <outline>
    <contour>
      <point x="644" y="-30" type="curve" smooth="yes"/>
      <point x="800" y="-30"/>
      <point x="970" y="24"/>
      <point x="1090" y="114" type="curve"/>
      <point x="952" y="362" type="line"/>
      <point x="862" y="292"/>
      <point x="768" y="262"/>
      <point x="666" y="262" type="curve" smooth="yes"/>
      <point x="502" y="262"/>
      <point x="404" y="348"/>
      <point x="404" y="520" type="curve" smooth="yes"/>
      <point x="404" y="694"/>
      <point x="500" y="778"/>
      <point x="664" y="778" type="curve" smooth="yes"/>
      <point x="752" y="778"/>
      <point x="844" y="748"/>
      <point x="922" y="674" type="curve"/>
      <point x="1082" y="938" type="line"/>
      <point x="966" y="1024"/>
      <point x="820" y="1070"/>
      <point x="656" y="1070" type="curve" smooth="yes"/>
      <point x="314" y="1070"/>
      <point x="50" y="832"/>
      <point x="50" y="520" type="curve" smooth="yes"/>
      <point x="50" y="206"/>
      <point x="306" y="-30"/>
    </contour>
    <contour>
      <point x="280" y="396" type="line"/>
      <point x="820" y="396" type="line"/>
      <point x="820" y="664" type="line"/>
      <point x="280" y="664" type="line"/>
    </contour>
  </outline>
</glyph>
<glyph name="lje-cy" format="2">
  <advance width="1896"/>
  <unicode hex="0459"/>
  <outline>
    <contour>
      <point x="172" y="-30" type="line"/>
      <point x="554" y="44"/>
      <point x="626" y="270"/>
      <point x="626" y="698" type="curve" smooth="yes"/>
      <point x="626" y="728" type="line"/>
      <point x="818" y="728" type="line"/>
      <point x="1218" y="1040" type="line"/>
      <point x="266" y="1040" type="line"/>
      <point x="266" y="698" type="line" smooth="yes"/>
      <point x="266" y="478"/>
      <point x="252" y="382"/>
      <point x="46" y="332" type="curve"/>
    </contour>
    <contour>
      <point x="818" y="0" type="line"/>
      <point x="1368" y="0" type="line" smooth="yes"/>
      <point x="1664" y="0"/>
      <point x="1848" y="144"/>
      <point x="1848" y="380" type="curve" smooth="yes"/>
      <point x="1848" y="634"/>
      <point x="1666" y="758"/>
      <point x="1368" y="758" type="curve" smooth="yes"/>
      <point x="1182" y="758" type="line"/>
      <point x="1182" y="490" type="line"/>
      <point x="1334" y="490" type="line" smooth="yes"/>
      <point x="1398" y="490"/>
      <point x="1440" y="444"/>
      <point x="1440" y="380" type="curve" smooth="yes"/>
      <point x="1440" y="314"/>
      <point x="1392" y="272"/>
      <point x="1318" y="272" type="curve" smooth="yes"/>
      <point x="1218" y="272" type="line"/>
      <point x="1218" y="1040" type="line"/>
      <point x="818" y="1040" type="line"/>
    </contour>
  </outline>
</glyph>
<glyph name="nje-cy" format="2">
  <advance width="1908"/>
  <unicode hex="045A"/>
  <guideline x="347" y="341" angle="0"/>
  <guideline x="347" y="185" angle="180"/>
  <outline>
    <contour>
      <point x="128" y="0" type="line"/>
      <point x="528" y="0" type="line"/>
      <point x="528" y="1040" type="line"/>
      <point x="128" y="1040" type="line"/>
    </contour>
    <contour>
      <point x="828" y="0" type="line"/>
      <point x="1378" y="0" type="line" smooth="yes"/>
      <point x="1666" y="0"/>
      <point x="1848" y="134"/>
      <point x="1848" y="354" type="curve" smooth="yes"/>
      <point x="1848" y="590"/>
      <point x="1670" y="704"/>
      <point x="1378" y="704" type="curve" smooth="yes"/>
      <point x="394" y="704" type="line"/>
      <point x="394" y="420" type="line"/>
      <point x="970" y="420" type="line"/>
      <point x="1086" y="440" type="line"/>
      <point x="1344" y="440" type="line" smooth="yes"/>
      <point x="1402" y="440"/>
      <point x="1440" y="400"/>
      <point x="1440" y="354" type="curve" smooth="yes"/>
      <point x="1440" y="304"/>
      <point x="1396" y="268"/>
      <point x="1328" y="268" type="curve" smooth="yes"/>
      <point x="1228" y="268" type="line"/>
      <point x="1228" y="1040" type="line"/>
      <point x="828" y="1040" type="line"/>
    </contour>
  </outline>
</glyph>
<glyph name="Yat-cy" format="2">
  <advance width="1552"/>
  <unicode hex="0462"/>
  <outline>
    <contour>
      <point x="356" y="0" type="line"/>
      <point x="944" y="0" type="line" smooth="yes"/>
      <point x="1304" y="0"/>
      <point x="1512" y="168"/>
      <point x="1512" y="464" type="curve" smooth="yes"/>
      <point x="1512" y="731"/>
      <point x="1274" y="888"/>
      <point x="954" y="888" type="curve" smooth="yes"/>
      <point x="478" y="888" type="line"/>
      <point x="478" y="564" type="line"/>
      <point x="930" y="564" type="line" smooth="yes"/>
      <point x="1034" y="564"/>
      <point x="1108" y="532"/>
      <point x="1108" y="428" type="curve" smooth="yes"/>
      <point x="1108" y="328"/>
      <point x="1040" y="294"/>
      <point x="928" y="294" type="curve" smooth="yes"/>
      <point x="760" y="294" type="line"/>
      <point x="760" y="1440" type="line"/>
      <point x="356" y="1440" type="line"/>
    </contour>
    <contour>
      <point x="56" y="996" type="line"/>
      <point x="1062" y="996" type="line"/>
      <point x="1062" y="1304" type="line"/>
      <point x="56" y="1304" type="line"/>
    </contour>
  </outline>
</glyph>
<glyph name="yat-cy" format="2">
  <advance width="1376"/>
  <unicode hex="0463"/>
  <outline>
    <contour>
      <point x="308" y="0" type="line"/>
      <point x="858" y="0" type="line" smooth="yes"/>
      <point x="1146" y="0"/>
      <point x="1328" y="134"/>
      <point x="1328" y="354" type="curve" smooth="yes"/>
      <point x="1328" y="570"/>
      <point x="1150" y="674"/>
      <point x="858" y="674" type="curve" smooth="yes"/>
      <point x="676" y="674" type="line"/>
      <point x="676" y="440" type="line"/>
      <point x="824" y="440" type="line" smooth="yes"/>
      <point x="882" y="440"/>
      <point x="920" y="400"/>
      <point x="920" y="354" type="curve" smooth="yes"/>
      <point x="920" y="304"/>
      <point x="876" y="268"/>
      <point x="808" y="268" type="curve" smooth="yes"/>
      <point x="708" y="268" type="line"/>
      <point x="708" y="1440" type="line"/>
      <point x="308" y="1440" type="line"/>
    </contour>
    <contour>
      <point x="46" y="748" type="line"/>
      <point x="970" y="748" type="line"/>
      <point x="970" y="1040" type="line"/>
      <point x="46" y="1040" type="line"/>
    </contour>
  </outline>
</glyph>
<glyph name="Izhitsa-cy" format="2">
  <advance width="1460"/>
  <unicode hex="0474"/>
  <outline>
    <contour>
      <point x="484" y="0" type="line"/>
      <point x="954" y="0" type="line"/>
      <point x="1206" y="764" type="line" smooth="yes"/>
      <point x="1288" y="1010"/>
      <point x="1346" y="1078"/>
      <point x="1606" y="1064" type="curve"/>
      <point x="1470" y="1430" type="line"/>
      <point x="1128" y="1440"/>
      <point x="984" y="1282"/>
      <point x="854" y="894" type="curve" smooth="yes"/>
      <point x="724" y="504" type="line"/>
      <point x="438" y="1400" type="line"/>
      <point x="-18" y="1400" type="line"/>
    </contour>
  </outline>
</glyph>
<glyph name="izhitsa-cy" format="2">
  <advance width="1228"/>
  <unicode hex="0475"/>
  <outline>
    <contour>
      <point x="366" y="0" type="line"/>
      <point x="812" y="0" type="line"/>
      <point x="1030" y="474" type="line" smooth="yes"/>
      <point x="1104" y="636"/>
      <point x="1158" y="684"/>
      <point x="1294" y="678" type="curve"/>
      <point x="1178" y="1060" type="line"/>
      <point x="890" y="1072"/>
      <point x="814" y="960"/>
      <point x="680" y="630" type="curve" smooth="yes"/>
      <point x="604" y="444" type="line"/>
      <point x="438" y="1040" type="line"/>
      <point x="10" y="1040" type="line"/>
    </contour>
  </outline>
</glyph>
<glyph name="Gheupturn-cy" format="2">
  <advance width="1086"/>
  <unicode hex="0490"/>
  <anchor x="440" y="644" name="bar"/>
  <anchor x="560" y="0" name="descender"/>
  <anchor x="606" y="1400" name="top"/>
  <outline>
    <contour>
      <point x="672" y="1032" type="line"/>
      <point x="1056" y="1032" type="line"/>
      <point x="1056" y="1750" type="line"/>
      <point x="672" y="1750" type="line"/>
    </contour>
    <component base="Ge-cy"/>
  </outline>
</glyph>
<glyph name="Ghemiddlehook-cy" format="2">
  <advance width="1442"/>
  <unicode hex="0494"/>
  <guideline x="459" y="190" angle="300"/>
  <outline>
    <contour>
      <point x="156" y="0" type="line"/>
      <point x="560" y="0" type="line"/>
      <point x="560" y="1040" type="line"/>
      <point x="1116" y="1040" type="line"/>
      <point x="1116" y="1400" type="line"/>
      <point x="156" y="1400" type="line"/>
    </contour>
    <contour>
      <point x="974" y="-334" type="line"/>
      <point x="1256" y="-188"/>
      <point x="1392" y="88"/>
      <point x="1392" y="350" type="curve" smooth="yes"/>
      <point x="1392" y="654"/>
      <point x="1180" y="900"/>
      <point x="792" y="900" type="curve" smooth="yes"/>
      <point x="694" y="900"/>
      <point x="592" y="888"/>
      <point x="486" y="856" type="curve"/>
      <point x="490" y="532" type="line"/>
      <point x="564" y="556"/>
      <point x="622" y="568"/>
      <point x="702" y="568" type="curve" smooth="yes"/>
      <point x="872" y="568"/>
      <point x="984" y="454"/>
      <point x="984" y="318" type="curve" smooth="yes"/>
      <point x="984" y="184"/>
      <point x="916" y="52"/>
      <point x="774" y="-32" type="curve"/>
    </contour>
  </outline>
</glyph>
<glyph name="ghemiddlehook-cy" format="2">
  <advance width="1160"/>
  <unicode hex="0495"/>
  <anchor x="348" y="462" name="bar"/>
  <anchor x="528" y="0" name="descender"/>
  <anchor x="494" y="1040" name="top"/>
  <outline>
    <contour>
      <point x="778" y="-262" type="line"/>
      <point x="988" y="-158"/>
      <point x="1106" y="16"/>
      <point x="1106" y="226" type="curve" smooth="yes"/>
      <point x="1106" y="462"/>
      <point x="924" y="620"/>
      <point x="652" y="620" type="curve" smooth="yes"/>
      <point x="554" y="620"/>
      <point x="480" y="612"/>
      <point x="406" y="594" type="curve"/>
      <point x="410" y="310" type="line"/>
      <point x="486" y="324"/>
      <point x="524" y="328"/>
      <point x="568" y="328" type="curve" smooth="yes"/>
      <point x="680" y="328"/>
      <point x="744" y="280"/>
      <point x="744" y="196" type="curve" smooth="yes"/>
      <point x="744" y="122"/>
      <point x="692" y="56"/>
      <point x="598" y="8" type="curve"/>
    </contour>
    <component base="ge-cy"/>
  </outline>
</glyph>
<glyph name="Kabashkir-cy" format="2">
  <advance width="1752"/>
  <unicode hex="04A0"/>
  <anchor x="1622" y="0" name="descender"/>
  <anchor x="994" y="1400" name="top"/>
  <outline>
    <contour>
      <point x="390" y="1032" type="line"/>
      <point x="790" y="1400" type="line"/>
      <point x="30" y="1400" type="line"/>
      <point x="30" y="1032" type="line"/>
    </contour>
    <component base="Ka-cy" xOffset="230"/>
  </outline>
</glyph>
<glyph name="kabashkir-cy" format="2">
  <advance width="1452"/>
  <unicode hex="04A1"/>
  <outline>
    <contour>
      <point x="968" y="0" type="line"/>
      <point x="1438" y="0" type="line"/>
      <point x="1084" y="560" type="line"/>
      <point x="1420" y="1040" type="line"/>
      <point x="1000" y="1040" type="line"/>
      <point x="658" y="538" type="line"/>
    </contour>
    <contour>
      <point x="308" y="0" type="line"/>
      <point x="708" y="0" type="line"/>
      <point x="708" y="370" type="line"/>
      <point x="1028" y="370" type="line"/>
      <point x="1028" y="682" type="line"/>
      <point x="708" y="682" type="line"/>
      <point x="708" y="1040" type="line"/>
      <point x="308" y="1040" type="line"/>
    </contour>
    <contour>
      <point x="46" y="728" type="line"/>
      <point x="308" y="728" type="line"/>
      <point x="708" y="1040" type="line"/>
      <point x="46" y="1040" type="line"/>
    </contour>
  </outline>
</glyph>
<glyph name="ustraight-cy" format="2">
  <advance width="1178"/>
  <unicode hex="04AF"/>
  <guideline x="299" y="-210" angle="90"/>
  <anchor x="598" y="-80" name="bar"/>
  <outline>
    <contour>
      <point x="398" y="-420" type="line"/>
      <point x="798" y="-420" type="line"/>
      <point x="798" y="0" type="line"/>
      <point x="1168" y="1040" type="line"/>
      <point x="752" y="1040" type="line"/>
      <point x="546" y="328" type="line"/>
      <point x="648" y="328" type="line"/>
      <point x="436" y="1040" type="line"/>
      <point x="10" y="1040" type="line"/>
      <point x="398" y="0" type="line"/>
    </contour>
  </outline>
</glyph>
<glyph name="endash" format="2">
  <advance width="1080"/>
  <unicode hex="2013"/>
  <outline>
    <contour>
      <point x="50" y="412" type="line"/>
      <point x="1030" y="412" type="line"/>
      <point x="1030" y="728" type="line"/>
      <point x="50" y="728" type="line"/>
    </contour>
  </outline>
</glyph>
<glyph name="quoteleft" format="2">
  <advance width="600"/>
  <unicode hex="2018"/>
  <outline>
    <contour>
      <point x="296" y="588" type="curve" smooth="yes"/>
      <point x="436" y="588"/>
      <point x="534" y="682"/>
      <point x="534" y="818" type="curve" smooth="yes"/>
      <point x="534" y="926"/>
      <point x="434" y="1026"/>
      <point x="316" y="1038" type="curve"/>
      <point x="370" y="1124"/>
      <point x="470" y="1210"/>
      <point x="566" y="1252" type="curve"/>
      <point x="426" y="1420" type="line"/>
      <point x="178" y="1268"/>
      <point x="50" y="1078"/>
      <point x="50" y="864" type="curve" smooth="yes"/>
      <point x="50" y="702"/>
      <point x="152" y="588"/>
    </contour>
  </outline>
</glyph>
<glyph name="dagger" format="2">
  <advance width="1346"/>
  <unicode hex="2020"/>
  <outline>
    <contour>
      <point x="476" y="-318" type="line"/>
      <point x="870" y="-318" type="line"/>
      <point x="870" y="602" type="line"/>
      <point x="1282" y="602" type="line"/>
      <point x="1282" y="926" type="line"/>
      <point x="870" y="926" type="line"/>
      <point x="870" y="1400" type="line"/>
      <point x="476" y="1400" type="line"/>
      <point x="476" y="926" type="line"/>
      <point x="64" y="926" type="line"/>
      <point x="64" y="602" type="line"/>
      <point x="476" y="602" type="line"/>
    </contour>
  </outline>
</glyph>
<glyph name="bullet" format="2">
  <advance width="1000"/>
  <unicode hex="2022"/>
  <outline>
    <contour>
      <point x="500" y="260" type="curve" smooth="yes"/>
      <point x="752" y="260"/>
      <point x="936" y="442"/>
      <point x="936" y="688" type="curve" smooth="yes"/>
      <point x="936" y="934"/>
      <point x="752" y="1116"/>
      <point x="500" y="1116" type="curve" smooth="yes"/>
      <point x="248" y="1116"/>
      <point x="64" y="934"/>
      <point x="64" y="688" type="curve" smooth="yes"/>
      <point x="64" y="442"/>
      <point x="248" y="260"/>
    </contour>
  </outline>
</glyph>
<glyph name="minute" format="2">
  <advance width="516"/>
  <unicode hex="2032"/>
  <outline>
    <contour>
      <point x="44" y="902" type="line"/>
      <point x="326" y="902" type="line"/>
      <point x="498" y="1440" type="line"/>
      <point x="138" y="1440" type="line"/>
    </contour>
  </outline>
</glyph>
<glyph name="guilsinglleft" format="2">
  <advance width="710"/>
  <unicode hex="2039"/>
  <outline>
    <contour>
      <point x="274" y="140" type="line"/>
      <point x="640" y="140" type="line"/>
      <point x="408" y="528" type="line"/>
      <point x="640" y="918" type="line"/>
      <point x="274" y="918" type="line"/>
      <point x="40" y="528" type="line"/>
    </contour>
  </outline>
</glyph>
<glyph name="fraction" format="2">
  <advance width="396"/>
  <unicode hex="2044"/>
  <outline>
    <contour>
      <point x="-84" y="-40" type="line"/>
      <point x="680" y="1326" type="line"/>
      <point x="480" y="1440" type="line"/>
      <point x="-284" y="78" type="line"/>
    </contour>
  </outline>
</glyph>
<glyph name="foursuperior" format="2">
  <advance width="848"/>
  <unicode hex="2074"/>
  <outline>
    <contour>
      <point x="468" y="722" type="line"/>
      <point x="682" y="722" type="line"/>
      <point x="682" y="882" type="line"/>
      <point x="800" y="882" type="line"/>
      <point x="800" y="1088" type="line"/>
      <point x="682" y="1088" type="line"/>
      <point x="682" y="1250" type="line"/>
      <point x="468" y="1250" type="line"/>
      <point x="468" y="1088" type="line"/>
      <point x="300" y="1088" type="line"/>
      <point x="564" y="1632" type="line"/>
      <point x="310" y="1632" type="line"/>
      <point x="34" y="1066" type="line"/>
      <point x="34" y="882" type="line"/>
      <point x="468" y="882" type="line"/>
    </contour>
  </outline>
</glyph>
<glyph name="tugrik" format="2">
  <advance width="1296"/>
  <unicode hex="20AE"/>
  <anchor x="650" y="644" name="bar"/>
  <anchor x="648" y="0" name="bottom"/>
  <anchor x="648" y="1400" name="top"/>
  <outline>
    <contour>
      <point x="256" y="384" type="line"/>
      <point x="648" y="590" type="line"/>
      <point x="648" y="550" type="line"/>
      <point x="1040" y="756" type="line"/>
      <point x="1040" y="1004" type="line"/>
      <point x="648" y="798" type="line"/>
      <point x="648" y="838" type="line"/>
      <point x="256" y="632" type="line"/>
    </contour>
    <contour>
      <point x="256" y="36" type="line"/>
      <point x="648" y="242" type="line"/>
      <point x="648" y="202" type="line"/>
      <point x="1040" y="408" type="line"/>
      <point x="1040" y="656" type="line"/>
      <point x="648" y="450" type="line"/>
      <point x="648" y="490" type="line"/>
      <point x="256" y="284" type="line"/>
    </contour>
    <component base="T" xOffset="56"/>
  </outline>
</glyph>
<glyph name="rupeeIndian" format="2">
  <advance width="1296"/>
  <unicode hex="20B9"/>
  <outline>
    <contour>
      <point x="630" y="0" type="line"/>
      <point x="1024" y="0" type="line"/>
      <point x="678" y="572" type="line"/>
      <point x="850" y="628"/>
      <point x="982" y="754"/>
      <point x="982" y="968" type="curve" smooth="yes"/>
      <point x="982" y="1214"/>
      <point x="774" y="1360"/>
      <point x="454" y="1360" type="curve" smooth="yes"/>
      <point x="276" y="1360" type="line"/>
      <point x="276" y="1174" type="line"/>
      <point x="400" y="1174" type="line" smooth="yes"/>
      <point x="536" y="1174"/>
      <point x="652" y="1132"/>
      <point x="652" y="956" type="curve" smooth="yes"/>
      <point x="652" y="778"/>
      <point x="532" y="742"/>
      <point x="400" y="742" type="curve" smooth="yes"/>
      <point x="276" y="742" type="line"/>
      <point x="276" y="610" type="line"/>
    </contour>
    <contour>
      <point x="88" y="836" type="line"/>
      <point x="1208" y="836" type="line"/>
      <point x="1208" y="1062" type="line"/>
      <point x="88" y="1062" type="line"/>
    </contour>
    <contour>
      <point x="88" y="1174" type="line"/>
      <point x="1208" y="1174" type="line"/>
      <point x="1208" y="1400" type="line"/>
      <point x="88" y="1400" type="line"/>
    </contour>
  </outline>
</glyph>
<glyph name="leftanglebracket-math" format="2">
  <advance width="1296"/>
  <unicode hex="27E8"/>
  <guideline x="614" y="329" angle="90"/>
  <guideline x="566" y="690" angle="48.8943"/>
  <guideline x="1132" y="1380" angle="138.9276"/>
  <guideline x="1132" y="-52" angle="41.0724"/>
  <outline>
    <contour>
      <point x="1052" y="-360" type="line"/>
      <point x="1250" y="-188" type="line"/>
      <point x="508" y="664" type="line"/>
      <point x="1250" y="1516" type="line"/>
      <point x="1052" y="1688" type="line"/>
      <point x="160" y="664" type="line"/>
    </contour>
  </outline>
</glyph>
<glyph name="rightanglebracket-math" format="2">
  <advance width="1296"/>
  <unicode hex="27E9"/>
  <outline>
    <contour>
      <point x="164" y="-450" type="line"/>
      <point x="1136" y="664" type="line"/>
      <point x="164" y="1778" type="line"/>
      <point x="164" y="1380" type="line"/>
      <point x="788" y="664" type="line"/>
      <point x="164" y="-52" type="line"/>
    </contour>
  </outline>
</glyph>
<glyph name="_part.Tse-cy" format="2">
  <advance width="1568"/>
  <anchor x="794" y="0" name="bottom"/>
  <anchor x="1412" y="0" name="descender"/>
  <outline>
    <contour>
      <point x="156" y="0" type="line"/>
      <point x="1412" y="0" type="line"/>
      <point x="1412" y="1400" type="line"/>
      <point x="1008" y="1400" type="line"/>
      <point x="1008" y="368" type="line"/>
      <point x="560" y="368" type="line"/>
      <point x="560" y="1400" type="line"/>
      <point x="156" y="1400" type="line"/>
    </contour>
  </outline>
</glyph>
<glyph name="_part.Zhe-cy" format="2">
  <advance width="2328"/>
  <anchor x="2178" y="0" name="descender"/>
  <anchor x="1164" y="1400" name="top"/>
  <outline>
    <contour>
      <point x="1820" y="0" type="line"/>
      <point x="2338" y="0" type="line"/>
      <point x="1756" y="714" type="line"/>
      <point x="2278" y="1400" type="line"/>
      <point x="1772" y="1400" type="line"/>
      <point x="1264" y="714" type="line"/>
    </contour>
    <contour>
      <point x="-10" y="0" type="line"/>
      <point x="488" y="0" type="line"/>
      <point x="1060" y="708" type="line"/>
      <point x="578" y="1400" type="line"/>
      <point x="56" y="1400" type="line"/>
      <point x="568" y="688" type="line"/>
    </contour>
    <contour>
      <point x="962" y="0" type="line"/>
      <point x="1366" y="0" type="line"/>
      <point x="1366" y="538" type="line"/>
      <point x="1634" y="538" type="line"/>
      <point x="1634" y="906" type="line"/>
      <point x="1366" y="906" type="line"/>
      <point x="1366" y="1400" type="line"/>
      <point x="962" y="1400" type="line"/>
      <point x="962" y="906" type="line"/>
      <point x="694" y="906" type="line"/>
      <point x="694" y="538" type="line"/>
      <point x="962" y="538" type="line"/>
    </contour>
  </outline>
</glyph>
<glyph name="_part.cy-desc-lc" format="2">
  <advance width="1412"/>
  <anchor x="1088" y="0" name="_descender"/>
  <outline>
    <contour>
      <point x="1008" y="-300" type="line"/>
      <point x="1372" y="-300" type="line"/>
      <point x="1372" y="312" type="line"/>
      <point x="928" y="312" type="line"/>
      <point x="928" y="0" type="line"/>
      <point x="1008" y="0" type="line"/>
    </contour>
  </outline>
</glyph>
<glyph name="_part.cy-desc-uc-reversed" format="2">
  <anchor x="-108" y="0" name="_descender"/>
  <outline>
    <contour>
      <point x="-336" y="-350" type="line"/>
      <point x="48" y="-350" type="line"/>
      <point x="48" y="0" type="line"/>
      <point x="148" y="0" type="line"/>
      <point x="148" y="368" type="line"/>
      <point x="-336" y="368" type="line"/>
    </contour>
  </outline>
</glyph>
<glyph name="_part.cy-descender-uc-center" format="2">
  <guideline x="-77" y="184" angle="90"/>
  <anchor x="-154" y="0" name="_bottom"/>
  <outline>
    <contour>
      <point x="-346" y="-350" type="line"/>
      <point x="38" y="-350" type="line"/>
      <point x="38" y="288" type="line"/>
      <point x="-346" y="288" type="line"/>
    </contour>
  </outline>
</glyph>
<glyph name="_part.dollar" format="2">
  <advance width="1296"/>
  <anchor x="662" y="0" name="bottom"/>
  <anchor x="686" y="1400" name="top"/>
  <outline>
    <contour>
      <point x="672" y="-30" type="curve" smooth="yes"/>
      <point x="998" y="-30"/>
      <point x="1206" y="152"/>
      <point x="1206" y="418" type="curve" smooth="yes"/>
      <point x="1206" y="632"/>
      <point x="1074" y="752"/>
      <point x="816" y="824" type="curve"/>
      <point x="679" y="839" type="line"/>
      <point x="498" y="882"/>
      <point x="452" y="922"/>
      <point x="452" y="1012" type="curve" smooth="yes"/>
      <point x="452" y="1100"/>
      <point x="532" y="1156"/>
      <point x="676" y="1156" type="curve" smooth="yes"/>
      <point x="806" y="1156"/>
      <point x="938" y="1102"/>
      <point x="1010" y="1024" type="curve"/>
      <point x="1167" y="1258" type="line"/>
      <point x="1062" y="1363"/>
      <point x="876" y="1428"/>
      <point x="672" y="1428" type="curve" smooth="yes"/>
      <point x="378" y="1428"/>
      <point x="160" y="1246"/>
      <point x="160" y="996" type="curve" smooth="yes"/>
      <point x="160" y="800"/>
      <point x="274" y="656"/>
      <point x="553" y="577" type="curve"/>
      <point x="682" y="558" type="line"/>
      <point x="853" y="519"/>
      <point x="912" y="470"/>
      <point x="912" y="382" type="curve" smooth="yes"/>
      <point x="912" y="292"/>
      <point x="820" y="242"/>
      <point x="672" y="242" type="curve" smooth="yes"/>
      <point x="536" y="242"/>
      <point x="368" y="300"/>
      <point x="282" y="394" type="curve"/>
      <point x="130" y="151" type="line"/>
      <point x="262" y="34"/>
      <point x="469" y="-30"/>
    </contour>
  </outline>
</glyph>
<glyph name="_part.hryvniaBase" format="2">
  <advance width="1265"/>
  <anchor x="584" y="1400" name="top"/>
  <outline>
    <contour>
      <point x="630" y="-30" type="curve" smooth="yes"/>
      <point x="846" y="-30"/>
      <point x="1042" y="40"/>
      <point x="1192" y="172" type="curve"/>
      <point x="1006" y="470" type="line"/>
      <point x="922" y="374"/>
      <point x="752" y="306"/>
      <point x="600" y="306" type="curve" smooth="yes"/>
      <point x="510" y="306"/>
      <point x="452" y="340"/>
      <point x="452" y="392" type="curve" smooth="yes"/>
      <point x="452" y="444"/>
      <point x="478" y="462"/>
      <point x="634" y="522" type="curve" smooth="yes"/>
      <point x="742" y="564" type="line" smooth="yes"/>
      <point x="1012" y="668"/>
      <point x="1136" y="804"/>
      <point x="1136" y="996" type="curve" smooth="yes"/>
      <point x="1136" y="1244"/>
      <point x="900" y="1430"/>
      <point x="584" y="1430" type="curve" smooth="yes"/>
      <point x="374" y="1430"/>
      <point x="182" y="1362"/>
      <point x="52" y="1240" type="curve"/>
      <point x="246" y="952" type="line"/>
      <point x="328" y="1040"/>
      <point x="452" y="1094"/>
      <point x="576" y="1094" type="curve" smooth="yes"/>
      <point x="672" y="1094"/>
      <point x="746" y="1052"/>
      <point x="746" y="998" type="curve" smooth="yes"/>
      <point x="746" y="952"/>
      <point x="716" y="932"/>
      <point x="562" y="878" type="curve" smooth="yes"/>
      <point x="462" y="838" type="line" smooth="yes"/>
      <point x="172" y="734"/>
      <point x="56" y="618"/>
      <point x="56" y="432" type="curve" smooth="yes"/>
      <point x="56" y="154"/>
      <point x="284" y="-30"/>
    </contour>
  </outline>
</glyph>
<glyph name="_part.kip" format="2">
  <advance width="1296"/>
  <guideline x="179" y="626" angle="0"/>
  <outline>
    <contour>
      <point x="858" y="0" type="line"/>
      <point x="1258" y="0" type="line"/>
      <point x="978" y="694" type="line"/>
      <point x="1250" y="1400" type="line"/>
      <point x="860" y="1400" type="line"/>
      <point x="600" y="690" type="line"/>
    </contour>
    <contour>
      <point x="198" y="0" type="line"/>
      <point x="558" y="0" type="line"/>
      <point x="558" y="1400" type="line"/>
      <point x="198" y="1400" type="line"/>
    </contour>
  </outline>
</glyph>
<glyph name="_part.ogonek" format="2">
  <advance width="2"/>
  <anchor x="-434" y="0" name="_ogonek"/>
  <outline>
    <contour>
      <point x="-684" y="-450" type="curve" smooth="yes"/>
      <point x="-592" y="-450"/>
      <point x="-502" y="-422"/>
      <point x="-429" y="-370" type="curve"/>
      <point x="-516" y="-174" type="line"/>
      <point x="-544" y="-204"/>
      <point x="-582" y="-222"/>
      <point x="-618" y="-222" type="curve" smooth="yes"/>
      <point x="-668" y="-222"/>
      <point x="-700" y="-192"/>
      <point x="-700" y="-145" type="curve" smooth="yes"/>
      <point x="-700" y="-59"/>
      <point x="-615" y="0"/>
      <point x="-434" y="0" type="curve"/>
      <point x="-483" y="300" type="line"/>
      <point x="-318" y="113" type="line"/>
      <point x="-681" y="142"/>
      <point x="-934" y="-4"/>
      <point x="-934" y="-219" type="curve" smooth="yes"/>
      <point x="-934" y="-354"/>
      <point x="-830" y="-450"/>
    </contour>
  </outline>
</glyph>
<glyph name="_part.verticalstroke.case" format="2">
  <advance width="1200"/>
  <anchor x="510" y="780" name="_center"/>
  <outline>
    <contour>
      <point x="410" y="380" type="line"/>
      <point x="610" y="380" type="line"/>
      <point x="610" y="1180" type="line"/>
      <point x="410" y="1180" type="line"/>
    </contour>
  </outline>
</glyph>
<glyph name="_part.won" format="2">
  <advance width="1296"/>
  <anchor x="648" y="1400" name="top"/>
  <outline>
    <contour>
      <point x="278" y="0" type="line"/>
      <point x="554" y="0" type="line"/>
      <point x="644" y="876" type="line"/>
      <point x="738" y="0" type="line"/>
      <point x="1018" y="0" type="line"/>
      <point x="1220" y="1400" type="line"/>
      <point x="946" y="1400" type="line"/>
      <point x="872" y="546" type="line"/>
      <point x="798" y="1400" type="line"/>
      <point x="506" y="1400" type="line"/>
      <point x="432" y="546" type="line"/>
      <point x="358" y="1400" type="line"/>
      <point x="76" y="1400" type="line"/>
    </contour>
  </outline>
</glyph>
<glyph name="a.ss01" format="2">
  <advance width="1344"/>
  <anchor x="638" y="0" name="bottom"/>
  <anchor x="1216" y="0" name="ogonek"/>
  <anchor x="638" y="1040" name="top"/>
  <outline>
    <contour>
      <point x="554" y="-30" type="curve" smooth="yes"/>
      <point x="738" y="-30"/>
      <point x="882" y="58"/>
      <point x="932" y="198" type="curve"/>
      <point x="878" y="284" type="line"/>
      <point x="878" y="0" type="line"/>
      <point x="1216" y="0" type="line"/>
      <point x="1216" y="1040" type="line"/>
      <point x="878" y="1040" type="line"/>
      <point x="878" y="756" type="line"/>
      <point x="932" y="842" type="line"/>
      <point x="882" y="982"/>
      <point x="738" y="1070"/>
      <point x="554" y="1070" type="curve" smooth="yes"/>
      <point x="268" y="1070"/>
      <point x="50" y="860"/>
      <point x="50" y="520" type="curve" smooth="yes"/>
      <point x="50" y="180"/>
      <point x="268" y="-30"/>
    </contour>
    <contour>
      <point x="628" y="310" type="curve" smooth="yes"/>
      <point x="522" y="310"/>
      <point x="436" y="390"/>
      <point x="436" y="520" type="curve" smooth="yes"/>
      <point x="436" y="650"/>
      <point x="522" y="730"/>
      <point x="628" y="730" type="curve" smooth="yes"/>
      <point x="734" y="730"/>
      <point x="820" y="650"/>
      <point x="820" y="520" type="curve" smooth="yes"/>
      <point x="820" y="390"/>
      <point x="734" y="310"/>
    </contour>
  </outline>
</glyph>
<glyph name="brevecomb.case" format="2">
  <anchor x="-832" y="1400" name="_top"/>
  <anchor x="-832" y="1814" name="top"/>
  <outline>
    <contour>
      <point x="-832" y="1498" type="curve" smooth="yes"/>
      <point x="-566" y="1498"/>
      <point x="-378" y="1644"/>
      <point x="-382" y="1862" type="curve"/>
      <point x="-716" y="1862" type="line"/>
      <point x="-712" y="1798"/>
      <point x="-758" y="1756"/>
      <point x="-832" y="1756" type="curve" smooth="yes"/>
      <point x="-908" y="1756"/>
      <point x="-952" y="1798"/>
      <point x="-948" y="1862" type="curve"/>
      <point x="-1284" y="1862" type="line"/>
      <point x="-1288" y="1644"/>
      <point x="-1108" y="1498"/>
    </contour>
  </outline>
</glyph>
<glyph name="brevecomb.narrow" format="2">
  <anchor x="-636" y="1040" name="_top"/>
  <anchor x="-636" y="1484" name="top"/>
  <outline>
    <contour>
      <point x="-636" y="1160" type="curve" smooth="yes"/>
      <point x="-398" y="1160"/>
      <point x="-238" y="1318"/>
      <point x="-240" y="1544" type="curve"/>
      <point x="-558" y="1544" type="line"/>
      <point x="-554" y="1462"/>
      <point x="-588" y="1410"/>
      <point x="-636" y="1410" type="curve" smooth="yes"/>
      <point x="-686" y="1410"/>
      <point x="-718" y="1462"/>
      <point x="-714" y="1544" type="curve"/>
      <point x="-1032" y="1544" type="line"/>
      <point x="-1034" y="1314"/>
      <point x="-878" y="1160"/>
    </contour>
  </outline>
</glyph>
<glyph name="dieresiscomb.narrow" format="2">
  <anchor x="-638" y="1040" name="_top"/>
  <anchor x="-638" y="1484" name="top"/>
  <outline>
    <contour>
      <point x="-870" y="1170" type="curve" smooth="yes"/>
      <point x="-762" y="1170"/>
      <point x="-678" y="1248"/>
      <point x="-678" y="1374" type="curve" smooth="yes"/>
      <point x="-678" y="1500"/>
      <point x="-762" y="1578"/>
      <point x="-870" y="1578" type="curve" smooth="yes"/>
      <point x="-982" y="1578"/>
      <point x="-1064" y="1500"/>
      <point x="-1064" y="1374" type="curve" smooth="yes"/>
      <point x="-1064" y="1248"/>
      <point x="-982" y="1170"/>
    </contour>
    <contour>
      <point x="-406" y="1170" type="curve" smooth="yes"/>
      <point x="-294" y="1170"/>
      <point x="-212" y="1248"/>
      <point x="-212" y="1374" type="curve" smooth="yes"/>
      <point x="-212" y="1500"/>
      <point x="-294" y="1578"/>
      <point x="-406" y="1578" type="curve" smooth="yes"/>
      <point x="-514" y="1578"/>
      <point x="-598" y="1500"/>
      <point x="-598" y="1374" type="curve" smooth="yes"/>
      <point x="-598" y="1248"/>
      <point x="-514" y="1170"/>
    </contour>
  </outline>
</glyph>
<glyph name="el-cy.loclBGR" format="2">
  <advance width="1178"/>
  <outline>
    <contour>
      <point x="814" y="1040" type="line"/>
      <point x="346" y="1040" type="line"/>
      <point x="10" y="0" type="line"/>
      <point x="426" y="0" type="line"/>
      <point x="600" y="694" type="line"/>
      <point x="562" y="694" type="line"/>
      <point x="742" y="0" type="line"/>
      <point x="1168" y="0" type="line"/>
    </contour>
  </outline>
</glyph>
<glyph name="four.numr" format="2">
  <advance width="848"/>
  <outline>
    <contour>
      <point x="468" y="490" type="line"/>
      <point x="682" y="490" type="line"/>
      <point x="682" y="650" type="line"/>
      <point x="800" y="650" type="line"/>
      <point x="800" y="856" type="line"/>
      <point x="682" y="856" type="line"/>
      <point x="682" y="1018" type="line"/>
      <point x="468" y="1018" type="line"/>
      <point x="468" y="856" type="line"/>
      <point x="300" y="856" type="line"/>
      <point x="564" y="1400" type="line"/>
      <point x="310" y="1400" type="line"/>
      <point x="34" y="834" type="line"/>
      <point x="34" y="650" type="line"/>
      <point x="468" y="650" type="line"/>
    </contour>
  </outline>
</glyph>
<glyph name="hookabovecomb.case" format="2">
  <anchor x="-824" y="1400" name="_top"/>
  <outline>
    <contour>
      <point x="-954" y="1508" type="curve"/>
      <point x="-702" y="1508" type="line"/>
      <point x="-726" y="1542"/>
      <point x="-708" y="1564"/>
      <point x="-642" y="1596" type="curve" smooth="yes"/>
      <point x="-546" y="1642"/>
      <point x="-518" y="1688"/>
      <point x="-518" y="1760" type="curve" smooth="yes"/>
      <point x="-518" y="1872"/>
      <point x="-636" y="1940"/>
      <point x="-824" y="1940" type="curve" smooth="yes"/>
      <point x="-926" y="1940"/>
      <point x="-1042" y="1916"/>
      <point x="-1114" y="1878" type="curve"/>
      <point x="-1060" y="1690" type="line"/>
      <point x="-1012" y="1714"/>
      <point x="-968" y="1726"/>
      <point x="-906" y="1726" type="curve" smooth="yes"/>
      <point x="-868" y="1726"/>
      <point x="-836" y="1718"/>
      <point x="-836" y="1704" type="curve" smooth="yes"/>
      <point x="-836" y="1686"/>
      <point x="-854" y="1680"/>
      <point x="-898" y="1668" type="curve" smooth="yes"/>
      <point x="-984" y="1644"/>
      <point x="-1006" y="1588"/>
    </contour>
  </outline>
</glyph>
<glyph name="jdotless.calt" format="2">
  <advance width="656"/>
  <anchor x="328" y="1040" name="top"/>
  <outline>
    <contour>
      <point x="156" y="-450" type="curve" smooth="yes"/>
      <point x="376" y="-450"/>
      <point x="528" y="-326"/>
      <point x="528" y="-86" type="curve" smooth="yes"/>
      <point x="528" y="1040" type="line"/>
      <point x="128" y="1040" type="line"/>
      <point x="128" y="-54" type="line" smooth="yes"/>
      <point x="128" y="-103"/>
      <point x="106" y="-126"/>
      <point x="58" y="-126" type="curve" smooth="yes"/>
      <point x="31" y="-126"/>
      <point x="7" y="-122"/>
      <point x="-18" y="-112" type="curve"/>
      <point x="-54" y="-418" type="line"/>
      <point x="7" y="-442"/>
      <point x="67" y="-450"/>
    </contour>
  </outline>
</glyph>
<glyph name="nine.ss02" format="2">
  <advance width="1274"/>
  <outline>
    <contour>
      <point x="228" y="0" type="line"/>
      <point x="642" y="0" type="line"/>
      <point x="944" y="414" type="line" smooth="yes"/>
      <point x="1058" y="570"/>
      <point x="1178" y="736"/>
      <point x="1178" y="932" type="curve" smooth="yes"/>
      <point x="1178" y="1208"/>
      <point x="952" y="1430"/>
      <point x="636" y="1430" type="curve" smooth="yes"/>
      <point x="318" y="1430"/>
      <point x="82" y="1214"/>
      <point x="82" y="936" type="curve" smooth="yes"/>
      <point x="82" y="674"/>
      <point x="296" y="484"/>
      <point x="552" y="484" type="curve" smooth="yes"/>
      <point x="634" y="484"/>
      <point x="738" y="504"/>
      <point x="822" y="544" type="curve"/>
      <point x="698" y="630" type="line"/>
    </contour>
    <contour>
      <point x="632" y="756" type="curve" smooth="yes"/>
      <point x="530" y="756"/>
      <point x="450" y="818"/>
      <point x="450" y="938" type="curve" smooth="yes"/>
      <point x="450" y="1054"/>
      <point x="536" y="1118"/>
      <point x="630" y="1118" type="curve" smooth="yes"/>
      <point x="726" y="1118"/>
      <point x="810" y="1054"/>
      <point x="810" y="938" type="curve" smooth="yes"/>
      <point x="810" y="822"/>
      <point x="730" y="756"/>
    </contour>
  </outline>
</glyph>
<glyph name="ordfeminine.ss01" format="2">
  <advance width="936"/>
  <guideline x="211" y="450" angle="0"/>
  <anchor x="446" y="722" name="bottom"/>
  <anchor x="830" y="722" name="ogonek"/>
  <anchor x="446" y="1398" name="top"/>
  <outline>
    <contour>
      <point x="392" y="702" type="curve" smooth="yes"/>
      <point x="514" y="702"/>
      <point x="612" y="760"/>
      <point x="646" y="850" type="curve"/>
      <point x="610" y="906" type="line"/>
      <point x="610" y="722" type="line"/>
      <point x="830" y="722" type="line"/>
      <point x="830" y="1398" type="line"/>
      <point x="610" y="1398" type="line"/>
      <point x="610" y="1214" type="line"/>
      <point x="646" y="1270" type="line"/>
      <point x="612" y="1360"/>
      <point x="514" y="1418"/>
      <point x="392" y="1418" type="curve" smooth="yes"/>
      <point x="200" y="1418"/>
      <point x="54" y="1280"/>
      <point x="54" y="1060" type="curve" smooth="yes"/>
      <point x="54" y="840"/>
      <point x="200" y="702"/>
    </contour>
    <contour>
      <point x="440" y="924" type="curve" smooth="yes"/>
      <point x="366" y="924"/>
      <point x="306" y="976"/>
      <point x="306" y="1060" type="curve" smooth="yes"/>
      <point x="306" y="1144"/>
      <point x="366" y="1196"/>
      <point x="440" y="1196" type="curve" smooth="yes"/>
      <point x="514" y="1196"/>
      <point x="574" y="1144"/>
      <point x="574" y="1060" type="curve" smooth="yes"/>
      <point x="574" y="976"/>
      <point x="514" y="924"/>
    </contour>
  </outline>
</glyph>
<glyph name="ringcomb.case" format="2">
  <anchor x="-834" y="1400" name="_top"/>
  <anchor x="-834" y="2056" name="top"/>
  <outline>
    <contour>
      <point x="-834" y="1476" type="curve" smooth="yes"/>
      <point x="-644" y="1476"/>
      <point x="-494" y="1610"/>
      <point x="-494" y="1794" type="curve" smooth="yes"/>
      <point x="-494" y="1976"/>
      <point x="-644" y="2112"/>
      <point x="-834" y="2112" type="curve" smooth="yes"/>
      <point x="-1026" y="2112"/>
      <point x="-1174" y="1976"/>
      <point x="-1174" y="1794" type="curve" smooth="yes"/>
      <point x="-1174" y="1610"/>
      <point x="-1026" y="1476"/>
    </contour>
    <contour>
      <point x="-834" y="1686" type="curve" smooth="yes"/>
      <point x="-900" y="1686"/>
      <point x="-942" y="1730"/>
      <point x="-942" y="1794" type="curve" smooth="yes"/>
      <point x="-942" y="1858"/>
      <point x="-900" y="1902"/>
      <point x="-834" y="1902" type="curve" smooth="yes"/>
      <point x="-768" y="1902"/>
      <point x="-726" y="1858"/>
      <point x="-726" y="1794" type="curve" smooth="yes"/>
      <point x="-726" y="1730"/>
      <point x="-768" y="1686"/>
    </contour>
  </outline>
</glyph>
<glyph name="softsign-cy.loclBGR" format="2">
  <advance width="1179"/>
  <guideline x="-86" y="-82" angle="0"/>
  <outline>
    <contour>
      <point x="627" y="-30" type="curve" smooth="yes"/>
      <point x="919" y="-30"/>
      <point x="1129" y="164"/>
      <point x="1129" y="388" type="curve" smooth="yes"/>
      <point x="1129" y="618"/>
      <point x="941" y="766"/>
      <point x="687" y="766" type="curve" smooth="yes"/>
      <point x="593" y="766"/>
      <point x="505" y="756"/>
      <point x="437" y="732" type="curve"/>
      <point x="513" y="572" type="line"/>
      <point x="513" y="1040" type="line"/>
      <point x="113" y="1040" type="line"/>
      <point x="113" y="396" type="line" smooth="yes"/>
      <point x="113" y="126"/>
      <point x="323" y="-30"/>
    </contour>
    <contour>
      <point x="627" y="258" type="curve" smooth="yes"/>
      <point x="551" y="258"/>
      <point x="485" y="302"/>
      <point x="485" y="368" type="curve" smooth="yes"/>
      <point x="485" y="436"/>
      <point x="551" y="476"/>
      <point x="627" y="476" type="curve" smooth="yes"/>
      <point x="699" y="476"/>
      <point x="769" y="436"/>
      <point x="769" y="368" type="curve" smooth="yes"/>
      <point x="769" y="302"/>
      <point x="701" y="258"/>
    </contour>
  </outline>
</glyph>
<glyph name="three.dnom" format="2">
  <advance width="826"/>
  <outline>
    <contour>
      <point x="376" y="-20" type="curve" smooth="yes"/>
      <point x="588" y="-20"/>
      <point x="738" y="104"/>
      <point x="738" y="272" type="curve" smooth="yes"/>
      <point x="738" y="432"/>
      <point x="618" y="522"/>
      <point x="502" y="538" type="curve"/>
      <point x="698" y="718" type="line"/>
      <point x="698" y="910" type="line"/>
      <point x="74" y="910" type="line"/>
      <point x="74" y="700" type="line"/>
      <point x="408" y="700" type="line"/>
      <point x="190" y="536" type="line"/>
      <point x="258" y="374" type="line"/>
      <point x="300" y="386"/>
      <point x="338" y="390"/>
      <point x="366" y="390" type="curve" smooth="yes"/>
      <point x="444" y="390"/>
      <point x="498" y="354"/>
      <point x="498" y="292" type="curve" smooth="yes"/>
      <point x="498" y="236"/>
      <point x="438" y="198"/>
      <point x="358" y="198" type="curve" smooth="yes"/>
      <point x="274" y="198"/>
      <point x="182" y="234"/>
      <point x="136" y="292" type="curve"/>
      <point x="60" y="88" type="line"/>
      <point x="115" y="28"/>
      <point x="247" y="-20"/>
    </contour>
  </outline>
</glyph>
<glyph name="two.dnom" format="2">
  <advance width="844"/>
  <outline>
    <contour>
      <point x="78" y="0" type="line"/>
      <point x="766" y="0" type="line"/>
      <point x="766" y="212" type="line"/>
      <point x="420" y="212" type="line"/>
      <point x="482" y="266" type="line" smooth="yes"/>
      <point x="676" y="434"/>
      <point x="740" y="528"/>
      <point x="740" y="644" type="curve" smooth="yes"/>
      <point x="740" y="812"/>
      <point x="606" y="930"/>
      <point x="390" y="930" type="curve" smooth="yes"/>
      <point x="270" y="930"/>
      <point x="147" y="883"/>
      <point x="57" y="803" type="curve"/>
      <point x="144" y="614" type="line"/>
      <point x="210" y="682"/>
      <point x="288" y="712"/>
      <point x="364" y="712" type="curve" smooth="yes"/>
      <point x="450" y="712"/>
      <point x="500" y="678"/>
      <point x="500" y="610" type="curve" smooth="yes"/>
      <point x="500" y="534"/>
      <point x="438" y="476"/>
      <point x="276" y="336" type="curve" smooth="yes"/>
      <point x="78" y="166" type="line"/>
    </contour>
  </outline>
</glyph>
<glyph name="two.numr" format="2">
  <advance width="844"/>
  <outline>
    <contour>
      <point x="78" y="490" type="line"/>
      <point x="766" y="490" type="line"/>
      <point x="766" y="702" type="line"/>
      <point x="420" y="702" type="line"/>
      <point x="482" y="756" type="line" smooth="yes"/>
      <point x="676" y="924"/>
      <point x="740" y="1018"/>
      <point x="740" y="1134" type="curve" smooth="yes"/>
      <point x="740" y="1302"/>
      <point x="606" y="1420"/>
      <point x="390" y="1420" type="curve" smooth="yes"/>
      <point x="270" y="1420"/>
      <point x="147" y="1373"/>
      <point x="57" y="1293" type="curve"/>
      <point x="144" y="1104" type="line"/>
      <point x="204" y="1166"/>
      <point x="280" y="1202"/>
      <point x="364" y="1202" type="curve" smooth="yes"/>
      <point x="450" y="1202"/>
      <point x="500" y="1168"/>
      <point x="500" y="1100" type="curve" smooth="yes"/>
      <point x="500" y="1022"/>
      <point x="436" y="964"/>
      <point x="276" y="826" type="curve" smooth="yes"/>
      <point x="78" y="656" type="line"/>
    </contour>
  </outline>
</glyph>
<glyph name="ve-cy.loclBGR" format="2">
  <advance width="1297"/>
  <outline>
    <contour>
      <point x="665" y="-30" type="curve" smooth="yes"/>
      <point x="1003" y="-30"/>
      <point x="1227" y="158"/>
      <point x="1227" y="434" type="curve" smooth="yes"/>
      <point x="1227" y="584"/>
      <point x="1145" y="720"/>
      <point x="997" y="786" type="curve"/>
      <point x="1117" y="848"/>
      <point x="1189" y="966"/>
      <point x="1189" y="1088" type="curve" smooth="yes"/>
      <point x="1189" y="1322"/>
      <point x="985" y="1470"/>
      <point x="691" y="1470" type="curve" smooth="yes"/>
      <point x="365" y="1470"/>
      <point x="115" y="1298"/>
      <point x="115" y="912" type="curve" smooth="yes"/>
      <point x="115" y="506" type="line" smooth="yes"/>
      <point x="115" y="128"/>
      <point x="349" y="-30"/>
    </contour>
    <contour>
      <point x="671" y="308" type="curve" smooth="yes"/>
      <point x="561" y="308"/>
      <point x="495" y="370"/>
      <point x="495" y="486" type="curve" smooth="yes"/>
      <point x="495" y="970" type="line" smooth="yes"/>
      <point x="495" y="1070"/>
      <point x="555" y="1130"/>
      <point x="659" y="1130" type="curve" smooth="yes"/>
      <point x="761" y="1130"/>
      <point x="811" y="1088"/>
      <point x="811" y="1008" type="curve" smooth="yes"/>
      <point x="811" y="930"/>
      <point x="753" y="880"/>
      <point x="651" y="880" type="curve" smooth="yes"/>
      <point x="465" y="880" type="line"/>
      <point x="465" y="588" type="line"/>
      <point x="683" y="588" type="line" smooth="yes"/>
      <point x="795" y="588"/>
      <point x="851" y="540"/>
      <point x="851" y="450" type="curve" smooth="yes"/>
      <point x="851" y="366"/>
      <point x="785" y="308"/>
    </contour>
  </outline>
</glyph>
<glyph name="ze-cy.loclBGR" format="2">
  <advance width="1172"/>
  <anchor x="528" y="-420" name="bottom"/>
  <anchor x="538" y="1040" name="top"/>
  <outline>
    <contour>
      <point x="522" y="-450" type="curve" smooth="yes"/>
      <point x="846" y="-450"/>
      <point x="1092" y="-276"/>
      <point x="1092" y="14" type="curve" smooth="yes"/>
      <point x="1092" y="188"/>
      <point x="998" y="312"/>
      <point x="838" y="376" type="curve"/>
      <point x="948" y="434"/>
      <point x="1050" y="537"/>
      <point x="1050" y="703" type="curve" smooth="yes"/>
      <point x="1050" y="923"/>
      <point x="872" y="1080"/>
      <point x="542" y="1080" type="curve" smooth="yes"/>
      <point x="332" y="1080"/>
      <point x="151" y="1010"/>
      <point x="26" y="888" type="curve"/>
      <point x="186" y="612" type="line"/>
      <point x="238" y="688"/>
      <point x="352" y="740"/>
      <point x="468" y="740" type="curve" smooth="yes"/>
      <point x="599" y="740"/>
      <point x="662" y="689"/>
      <point x="662" y="604" type="curve" smooth="yes"/>
      <point x="662" y="530"/>
      <point x="598" y="484"/>
      <point x="484" y="484" type="curve" smooth="yes"/>
      <point x="260" y="484" type="line"/>
      <point x="260" y="172" type="line"/>
      <point x="506" y="172" type="line" smooth="yes"/>
      <point x="638" y="172"/>
      <point x="704" y="126"/>
      <point x="704" y="40" type="curve" smooth="yes"/>
      <point x="704" y="-56"/>
      <point x="616" y="-110"/>
      <point x="476" y="-110" type="curve" smooth="yes"/>
      <point x="354" y="-110"/>
      <point x="227" y="-64"/>
      <point x="144" y="10" type="curve"/>
      <point x="-8" y="-292" type="line"/>
      <point x="133" y="-399"/>
      <point x="299" y="-450"/>
    </contour>
  </outline>
</glyph>
<glyph name="zhe-cy.loclBGR" format="2">
  <advance width="1808"/>
  <outline>
    <contour>
      <point x="700" y="0" type="line"/>
      <point x="1100" y="0" type="line"/>
      <point x="1100" y="370" type="line"/>
      <point x="1392" y="370" type="line"/>
      <point x="1392" y="682" type="line"/>
      <point x="1100" y="682" type="line"/>
      <point x="1100" y="1440" type="line"/>
      <point x="700" y="1440" type="line"/>
      <point x="700" y="682" type="line"/>
      <point x="406" y="682" type="line"/>
      <point x="406" y="370" type="line"/>
      <point x="700" y="370" type="line"/>
    </contour>
    <contour>
      <point x="20" y="0" type="line"/>
      <point x="466" y="0" type="line"/>
      <point x="750" y="538" type="line"/>
      <point x="448" y="1040" type="line"/>
      <point x="14" y="1040" type="line"/>
      <point x="324" y="542" type="line"/>
    </contour>
    <contour>
      <point x="1326" y="0" type="line"/>
      <point x="1794" y="0" type="line"/>
      <point x="1476" y="560" type="line"/>
      <point x="1786" y="1040" type="line"/>
      <point x="1366" y="1040" type="line"/>
      <point x="1050" y="538" type="line"/>
    </contour>
  </outline>
</glyph>
